<svg id="Capa_1" enable-background="new 0 0 512.053 512.053" height="512" viewBox="0 0 512.053 512.053" width="512" xmlns="http://www.w3.org/2000/svg"><g><path d="m422.023 332.038c-49.626 0-90 40.374-90 90s40.374 90 90 90 90-40.374 90-90-40.374-90-90-90zm0 150c-33.084 0-60-26.916-60-60s26.916-60 60-60 60 26.916 60 60-26.916 60-60 60z"/><path d="m384.062 21.932c-.298.298-.583.607-.854.929l-309.818 366.881c-17.657-14.39-43.776-13.362-60.223 3.086-17.539 17.539-17.541 46.1 0 63.64l42.426 42.427c17.544 17.545 46.094 17.546 63.639 0 16.448-16.448 17.477-42.566 3.086-60.224 0 0 367.512-310.375 367.81-310.672 29.218-29.218 29.218-76.849 0-106.066-29.243-29.244-76.825-29.243-106.066-.001zm-192.111 273.909 24.268 24.268-115.01 97.122-6.38-6.38zm-93.932 181.84c-5.803 5.803-15.387 5.826-21.213 0l-42.426-42.427c-5.804-5.804-5.825-15.388 0-21.213 5.803-5.803 15.388-5.826 21.213 0l42.426 42.426c5.815 5.815 5.814 15.4 0 21.214zm371.309-371.314-230.107 194.318-27.845-27.845 194.317-230.107c17.578-17.133 45.814-16.996 63.223.412 17.353 17.355 17.49 45.696.412 63.222z"/></g></svg>