<svg id="Capa_1" enable-background="new 0 0 512.019 512.019" height="512" viewBox="0 0 512.019 512.019" width="512" xmlns="http://www.w3.org/2000/svg"><path d="m467.019 46.01c-14.426 0-95.192 17.475-135 26.287v-11.287c0-19.832-30-19.86-30 0v11.287c-39.808-8.812-120.574-26.287-135-26.287-24.813 0-45 20.187-45 45s20.187 45 45 45c14.426 0 95.192-17.475 135-26.287v26.287h-15c-8.284 0-15 6.716-15 15v45c-15.541 0-17.399-.494-21.534 1.514-22.091 3.565-42.601 13.349-59.44 28.486h-79.813l-25.607-25.607c-2.813-2.813-6.628-4.393-10.606-4.393h-60c-11.952 0-19.122 13.357-12.481 23.321l60 90c2.782 4.173 7.466 6.679 12.481 6.679h107v15c0 41.355 33.645 75 75 75h15v30h-11.459c-19.626 0-39.279-4.639-56.833-13.417-7.409-3.705-16.42-.701-20.125 6.708-3.705 7.41-.701 16.42 6.708 20.125 21.698 10.849 45.99 16.583 70.249 16.583h142.918c24.259 0 48.551-5.735 70.249-16.583 7.41-3.705 10.413-12.715 6.708-20.125-3.706-7.409-12.715-10.413-20.125-6.708-17.554 8.777-37.207 13.417-56.833 13.417h-11.459v-30h15c41.355 0 75-33.645 75-75 0-69.369-52.595-126.686-120-134.172v-45.828c0-8.284-6.716-15-15-15h-15v-26.287c39.808 8.812 120.574 26.287 135 26.287 24.813 0 45-20.187 45-45s-20.185-45-44.998-45zm-165 120h30v30h-30zm60 270h-60v-30h60zm45-60h-150c-24.813 0-45-20.187-45-45v-30c0-8.284-6.716-15-15-15h-113.972l-40-60h25.759l25.607 25.607c2.813 2.813 6.628 4.393 10.606 4.393h92c3.979 0 7.793-1.58 10.606-4.394 16.513-16.512 38.467-25.606 61.82-25.606h62.574v105c0 8.284 6.716 15 15 15h102.42c-6.192 17.458-22.865 30-42.42 30zm43.924-60h-88.924v-88.924c45.916 6.597 82.327 43.008 88.924 88.924zm-283.924-210c-19.848 0-19.836-30-.005-30 6.297.045 39.454 6.489 79.69 15-40.235 8.51-73.39 14.955-79.685 15zm300.005 0c-6.297-.045-39.454-6.489-79.69-15 40.236-8.511 73.391-14.955 79.686-15 19.847 0 19.835 30 .004 30z"/></svg>