<svg id="Capa_1" enable-background="new 0 0 512.203 512.203" height="512" viewBox="0 0 512.203 512.203" width="512" xmlns="http://www.w3.org/2000/svg"><path d="m57.155 507.258 29.847-31.836c15.731-15.874 20.834-39.618 12.998-60.568-2.055-5.495-.701-11.729 3.45-15.88l29.435-29.435 6.364 44.548c1.744 12.211 16.727 17.214 25.456 8.485l63.64-63.64c8.72-8.72 3.739-23.709-8.485-25.456l-44.548-6.364 16.854-16.854 225.394-55.689c-.104.104-46.775 46.776-46.88 46.88l.023.023c-9.939 11.033-.131 21.091-.028 21.194 53.451 53.391 40.408 40.259 42.505 42.349 7.869 7.87 21.31 4.713 24.837-5.863l42.427-127.279c.77-2.307.79-4.487.761-5.302l-7.2-204.901c-.277-7.871-6.594-14.188-14.465-14.464l-204.899-7.2c-1.875-.066-3.812.263-5.302.76l-127.281 42.429c-10.558 3.519-13.746 16.955-5.863 24.837.116.116 42.244 42.401 42.348 42.505 5.405 5.405 14.666 6.229 21.214-.008l46.884-46.876-55.689 225.394-16.854 16.853-6.364-44.548c-1.743-12.207-16.723-17.216-25.456-8.485l-63.64 63.64c-8.721 8.721-3.739 23.709 8.485 25.456l44.547 6.364-29.435 29.435c-30.366 30.367 5.213 54.787-16.631 76.631-.114.114-.226.23-.336.348l-30 32c-13.576 14.482 8.314 34.996 21.887 20.517zm65.124-211.964 3.535 24.749-24.749-3.536zm42.426 84.852-3.535-24.749 24.749 3.535zm285.181-190.555-68.526-68.526 63.873-63.873zm-13.099 29.328-203.579 50.299 126.939-126.939zm-76.64-119.067-68.526-68.526 132.399 4.652zm-21.213 21.213-126.94 126.939 50.299-203.58zm78.297 205.577-14.658-14.658c7.588-7.587 18.34-18.34 29.315-29.316zm-248.003-248.003-14.658-14.658 43.974-14.658c-10.976 10.976-21.729 21.729-29.316 29.316z"/></svg>