<svg id="Capa_1" enable-background="new 0 0 512.156 512.156" height="512" viewBox="0 0 512.156 512.156" width="512" xmlns="http://www.w3.org/2000/svg"><path d="m490.015 156.821c17.494 9.331 31.643-17.123 14.117-26.47-38.964-20.781-83.072-31.765-127.559-31.765-36.28 0-72.308 7.308-105.5 21.275v-23.855c17.459-6.192 30-22.865 30-42.42 0-24.813-20.187-45-45-45s-45 20.187-45 45c0 19.555 12.541 36.228 30 42.42v23.855c-33.192-13.967-69.22-21.275-105.5-21.275-44.486 0-88.595 10.984-127.559 31.765-17.494 9.33-3.404 35.82 14.117 26.47 2.627-1.401 5.278-2.734 7.941-4.031v44.583l-25.605 25.606c-4.565 4.565-5.697 11.54-2.81 17.315l28.416 56.832v44.04c-17.459 6.192-30 22.865-30 42.42 0 24.813 20.187 45 45 45s45-20.187 45-45c0-19.555-12.541-36.228-30-42.42v-44.04l28.416-56.832c2.888-5.775 1.756-12.75-2.81-17.315l-25.606-25.606c-.102-55.947.237-54.013-.285-56.681 59.317-19.691 124.292-15.666 181.285 12.099v44.583l-25.606 25.606c-4.565 4.565-5.697 11.54-2.81 17.315l28.416 56.832v38.3l-13.045 29.584-35.286-3.837c-12.911-1.403-21.428 13.249-13.725 23.772l20.966 28.64-20.966 28.64c-7.678 10.488.773 25.183 13.725 23.772l35.286-3.837 14.32 32.477c5.238 11.882 22.188 11.936 27.449 0l14.32-32.477 35.286 3.837c12.901 1.404 21.435-13.24 13.725-23.772l-20.966-28.64 20.966-28.64c7.678-10.488-.773-25.183-13.725-23.772l-35.286 3.837-13.045-29.584v-38.3l28.416-56.832c2.888-5.775 1.756-12.75-2.81-17.315l-25.606-25.606v-44.584c56.993-27.764 121.968-31.79 181.285-12.099-.518 2.646-.183.581-.285 56.681l-25.606 25.606c-4.565 4.565-5.697 11.54-2.81 17.315l28.416 56.832v44.04c-17.459 6.192-30 22.865-30 42.42 0 24.813 20.187 45 45 45s45-20.187 45-45c0-19.555-12.541-36.228-30-42.42v-44.04l28.416-56.832c2.888-5.775 1.756-12.75-2.81-17.315l-25.606-25.606v-44.582c2.665 1.298 5.316 2.63 7.943 4.031zm-444.941 103.224-11.749-23.497 11.749-11.749 11.749 11.749zm0 138.541c-8.271 0-15-6.729-15-15s6.729-15 15-15 15 6.729 15 15-6.729 15-15 15zm211-138.541-11.749-23.497 11.749-11.749 11.749 11.749zm0-221.459c8.271 0 15 6.729 15 15s-6.729 15-15 15-15-6.729-15-15 6.728-15 15-15zm20.371 357.436 12.383-1.346-7.357 10.05c-3.862 5.276-3.862 12.445 0 17.721l7.357 10.05-12.383-1.346c-6.485-.705-12.708 2.877-15.346 8.86l-5.025 11.396-5.025-11.396c-2.416-5.481-7.829-8.949-13.718-8.949-1.425 0-1.242.075-14.011 1.435l7.357-10.05c3.862-5.276 3.862-12.445 0-17.721l-7.357-10.05 12.383 1.346c6.488.706 12.708-2.877 15.346-8.86l5.025-11.396 5.025 11.396c2.638 5.982 8.852 9.57 15.346 8.86zm190.629-135.977-11.749-23.497 11.749-11.749 11.749 11.749zm0 138.541c-8.271 0-15-6.729-15-15s6.729-15 15-15 15 6.729 15 15-6.729 15-15 15z"/></svg>