<svg id="Capa_1" enable-background="new 0 0 512 512" height="512" viewBox="0 0 512 512" width="512" xmlns="http://www.w3.org/2000/svg"><g><path d="m407.156 392.044c-8.083 0-15.793 1.616-22.837 4.528l-31.397-35.818c85.043-10.716 146.119-85.774 144.182-164.021-.172-6.8-4.885-12.631-11.509-14.207-28.981-6.888-53.403-34.143-48.572-73.575 1.264-10.369-8.159-18.68-18.156-16.434-20.28 4.551-41.158-1.503-55.854-16.199s-20.751-35.574-16.199-55.852c3.271-14.594-14.642-24.463-25.233-13.889-17.194 17.193-40.054 26.663-64.37 26.663-23.893 0-45.343-8.504-64.635-26.903-6.438-6.137-16.779-5.373-22.231 1.735-3.598 4.71-3.963 10.923-1.517 15.813 15.09 30.18 63.519 127.037 79.117 158.234h-51.605l-154.992-176.819c-13.066-14.907-35.638 4.837-22.552 19.768l137.665 157.052h-124.168c-8.281 0-14.995 6.714-14.995 14.995 0 75.69 51.25 139.625 120.868 158.951l-35.487 41.64c-7.719-3.625-16.326-5.662-25.403-5.662-33.072 0-59.978 26.906-59.978 59.978s26.906 59.978 59.978 59.978c27.896 0 51.405-19.144 58.08-44.984h213.719c6.675 25.84 30.184 44.984 58.08 44.984 33.072 0 59.978-26.906 59.978-59.978s-26.905-59.978-59.977-59.978zm-329.879 89.967c-16.536 0-29.989-13.453-29.989-29.989s13.453-29.989 29.989-29.989 29.989 13.453 29.989 29.989-13.453 29.989-29.989 29.989zm329.858-348.368c2.007 13.675 7.001 26.847 14.837 38.6 2.32 3.481 4.862 6.77 7.582 9.876h-103.213zm-79.699-54.8c3.902 6.725 8.704 13.011 14.373 18.68 9.396 9.396 20.486 16.414 32.467 20.862l-75.027 45.016zm-108.481-21.757c12.176 4.042 25.054 6.143 38.256 6.143 16.394 0 32.287-3.243 46.956-9.416l-34.739 104.218zm53.148 155.023c.035 0 .07.004.104.004.035 0 .07-.004.105-.004h193.985c-7.483 67.381-64.769 119.956-134.113 119.956h-4.407c-7.685-8.779-104.502-119.219-105.149-119.956zm15.793 119.956h-89.873l44.305-51.986zm-239.77-119.956h134.623l39.602 45.179-62.182 72.964c-59.106-9.766-105.372-58.065-112.043-118.143zm300.951 224.918h-213.72c-1.907-7.382-5.199-14.21-9.563-20.209l46.912-55.046c8.955.513 2.02.18 141.479.282l46.108 52.601c-5.193 6.499-9.076 14.086-11.216 22.372zm58.08 44.984c-16.536 0-29.989-13.453-29.989-29.989s13.453-29.989 29.989-29.989 29.989 13.453 29.989 29.989-13.453 29.989-29.989 29.989z"/></g></svg>