<svg id="Capa_1" enable-background="new 0 0 512 512" height="512" viewBox="0 0 512 512" width="512" xmlns="http://www.w3.org/2000/svg"><g><path d="m451.229 159.562c-4.023-16.651-24.122-29.527-61.076-39.119-5.55-39.087-37.754-70.047-77.852-72.688-35.494-2.338-77.059-2.341-112.604 0-40.098 2.641-72.301 33.602-77.852 72.689-36.954 9.592-57.053 22.469-61.076 39.12l-59.206 205.472c-1.037 3.6-1.563 7.29-1.563 10.965 0 73.342 182.449 90 256 90 73.305 0 256-16.6 256-90 0-3.676-.526-7.365-1.563-10.967zm-311.954-12.464c6.853-1.533 11.725-7.616 11.725-14.638 0-28.841 22.257-52.899 50.67-54.771 34.193-2.252 74.432-2.254 108.66 0 28.413 1.872 50.67 25.93 50.67 54.771 0 7.022 4.872 13.105 11.725 14.638 32.026 7.166 44.924 15.148 48.53 18.899-2.438 2.507-10.458 8.756-33.838 15.319-20.54 5.766-46.562 10.031-75.802 12.45-8.848-16.531-30.171-27.763-55.614-27.763s-46.766 11.232-55.614 27.763c-29.241-2.419-55.262-6.684-75.802-12.45-23.38-6.563-31.4-12.811-33.838-15.319 3.604-3.752 16.502-11.733 48.528-18.899zm282.48 267.612c-44.189 13.73-103.055 21.291-165.755 21.291-96.633 0-226-25.229-226-60 0-.877.128-1.748.391-2.66l51.03-177.094c7.347 4.331 16.727 8.306 27.978 11.847 25.714 8.094 61.473 13.94 100.689 16.461 8.228.531 15.352-5.694 15.926-13.927.415-5.964 12.304-14.627 29.987-14.627s29.572 8.663 29.987 14.627c.551 7.906 7.134 13.959 14.949 13.959.324 0 .649-.01.977-.031 39.216-2.52 74.975-8.366 100.689-16.461 11.25-3.542 20.63-7.516 27.978-11.847l51.029 177.093c.263.913.391 1.783.391 2.661-.001 9.949-18.629 25.777-60.246 38.708z"/><path d="m308.428 298.194-16.742 5.44c-5.252-6.833-12.415-12.119-20.687-15.052v-17.58c0-8.284-6.716-15-15-15s-15 6.716-15 15v17.58c-8.271 2.934-15.434 8.22-20.687 15.052l-16.742-5.44c-7.88-2.561-16.342 1.752-18.901 9.631-2.56 7.879 1.751 16.341 9.63 18.901l16.728 5.435c.23 9.013 3.115 17.374 7.912 24.327l-10.344 14.237c-4.87 6.702-3.384 16.083 3.318 20.952 2.663 1.935 5.747 2.866 8.805 2.866 4.638 0 9.213-2.145 12.147-6.184l10.333-14.223c4.059 1.207 8.353 1.865 12.799 1.865s8.739-.658 12.799-1.865l10.333 14.223c2.935 4.04 7.509 6.184 12.147 6.184 3.057 0 6.142-.931 8.805-2.866 6.702-4.869 8.188-14.25 3.318-20.952l-10.344-14.237c4.797-6.953 7.682-15.314 7.912-24.327l16.728-5.435c7.879-2.56 12.19-11.022 9.63-18.901-2.555-7.879-11.015-12.19-18.897-9.631zm-67.428 32.807c0-8.271 6.729-15 15-15s15 6.729 15 15-6.729 15-15 15-15-6.729-15-15z"/><circle cx="151" cy="331.001" r="15"/><circle cx="361" cy="331.001" r="15"/></g></svg>