<svg id="Capa_1" enable-background="new 0 0 511.978 511.978" height="512" viewBox="0 0 511.978 511.978" width="512" xmlns="http://www.w3.org/2000/svg"><g><path d="m180.989 104.98c34.1 0 61.382-28.308 59.946-62.566-.989-23.569-22.053-42.413-47.169-42.413-.315 0-.634.003-.951.009-89.213 1.686-161.826 74.381-161.826 164.97v122c0 128.915 106.409 228.508 231.64 224.904 122.737-3.529 218.36-109.798 218.36-233.587v-113.317c0-90.657-72.678-163.285-161.826-164.97-25.521-.498-47.118 18.54-48.12 42.404-1.434 34.203 25.795 62.566 59.946 62.566 16.542 0 30 13.458 30 30 0 57.897-47.103 105-105 105s-105-47.103-105-105c0-16.542 13.458-30 30-30zm75 165c74.439 0 135-60.561 135-135 0-33.084-26.916-60-60-60-16.94 0-30.696-14.044-29.972-31.308.346-8.243 9.52-13.814 17.579-13.667 73.002 1.38 132.394 61.93 132.394 134.975v113.317c0 109.266-84.885 200.6-189.222 203.6-110.304 3.172-200.779-84.826-200.779-194.917v-122c0-73.046 59.392-133.595 132.394-134.975.107-.002.214-.003.321-.003 7.958 0 16.916 5.537 17.257 13.67.723 17.235-12.999 31.308-29.972 31.308-33.084 0-60 26.916-60 60 0 74.439 60.561 135 135 135z"/><path d="m194.29 372.704 16.728 5.435c.23 9.013 3.115 17.374 7.912 24.327l-10.344 14.237c-11.67 16.061 12.608 33.687 24.271 17.633l10.333-14.223c4.059 1.207 8.353 1.865 12.799 1.865s8.739-.658 12.799-1.865l10.333 14.223c11.665 16.056 35.939-1.573 24.271-17.633l-10.344-14.237c4.797-6.953 7.682-15.314 7.912-24.327l16.728-5.435c18.881-6.135 9.601-34.661-9.271-28.532l-16.742 5.44c-5.252-6.833-12.415-12.119-20.687-15.052v-17.58c0-19.832-30-19.86-30 0v17.58c-8.271 2.934-15.434 8.22-20.687 15.052l-16.742-5.44c-18.852-6.126-28.16 22.394-9.269 28.532zm46.699 4.276c0-8.271 6.729-15 15-15s15 6.729 15 15-6.729 15-15 15-15-6.729-15-15z"/><circle cx="150.989" cy="376.98" r="15"/><circle cx="360.989" cy="376.98" r="15"/></g></svg>