<svg id="Capa_1" enable-background="new 0 0 511.884 511.884" height="512" viewBox="0 0 511.884 511.884" width="512" xmlns="http://www.w3.org/2000/svg"><g><path d="m255.942 0c-90.981 0-165 74.019-165 165 0 79.436 56.482 170.268 133.036 190.751l-13.036 13.036c-18.863 18.863-5.481 51.213 21.214 51.213h8.787v77c0 19.832 30 19.86 30 0v-77h8.787c26.677 0 40.088-32.337 21.213-51.213l-13.036-13.036c77.017-20.607 133.035-111.944 133.035-190.751 0-90.981-74.018-165-165-165zm23.787 390h-47.574l23.787-23.787zm-23.785-60c-.001 0-.003 0-.004 0-74.21-.002-134.998-90.339-134.998-165 0-74.439 60.561-135 135-135s135 60.561 135 135c0 74.677-60.83 164.998-134.998 165z"/></g></svg>