<svg id="Capa_1" enable-background="new 0 0 512.015 512.015" height="512" viewBox="0 0 512.015 512.015" width="512" xmlns="http://www.w3.org/2000/svg"><path d="m4.392 443.98c-5.854 5.853-5.858 15.357 0 21.213l42.427 42.427c5.853 5.854 15.357 5.857 21.213 0l42.423-42.424c.001-.001.002-.001.003-.002l10.379-10.379c11.842 44.465 67.797 59.484 100.391 26.889l106.065-106.066c32.577-32.576 17.725-88.49-26.921-100.359l16.314-16.314c58.42-58.419 179.109-59.245 180.313-59.246 13.318 0 20.048-16.165 10.606-25.607l-169.706-169.705c-9.408-9.408-25.589-2.749-25.606 10.597-.002 1.212-.827 121.902-59.246 180.322l-53.033 53.033-10.607-10.607c-14.022-14.023-35.257 7.171-21.213 21.213l10.607 10.606-21.213 21.213-10.606-10.606c-14.021-14.025-35.257 7.17-21.213 21.213l10.606 10.606-21.214 21.214-10.606-10.607c-14.021-14.025-35.257 7.17-21.213 21.213l10.607 10.607zm53.033 31.82-21.214-21.213 21.214-21.213 21.213 21.213zm206.228-78.948-42.426-42.427 21.213-21.213 42.427 42.427zm-42.426 42.426-42.427-42.427 21.213-21.214 42.426 42.427zm-63.64 21.213c-11.725-11.726-11.725-30.701 0-42.427l42.427 42.427c-11.698 11.697-30.73 11.697-42.427 0zm148.492-106.066-42.427-42.427c27.853-27.85 70.498 14.354 42.427 42.427zm34.136-305.275 122.646 122.646c-40.781 4.225-109.196 17.059-156.247 55.885l-22.284-22.284c38.827-47.051 51.66-115.466 55.885-156.247zm-172.024 273.457c.001-.001.002-.001.002-.002s42.423-42.423 42.423-42.423c.001-.001.002-.002.004-.003s.002-.002.003-.004l53.029-53.029 21.214 21.213-42.419 42.419c-.002.003-.005.005-.008.007l-142.588 142.589-21.213-21.213z"/></svg>