<svg id="Capa_1" enable-background="new 0 0 512.649 512.649" height="512" viewBox="0 0 512.649 512.649" width="512" xmlns="http://www.w3.org/2000/svg"><g><path d="m29.043 402.972 80.611 80.611c29.825 29.825 87.754 42.071 119.218 10.606 43.606-43.606 24.479-65.21 64.275-105.005 39.082-39.081 81.023-38.596 114.34-71.913 23.879-23.879 24.359-62.309 1.256-86.109l31.836-31.836c5.858-5.858 5.858-15.355 0-21.213l-4.279-4.279c19.267-67.052 52.498-82.374 62.511-96.38 42.131-42.128-21.555-105.725-63.639-63.64-14.088 10.067-29.07 43.045-96.392 62.5l-4.268-4.268c-5.853-5.854-15.357-5.857-21.213 0l-31.836 31.836c-24.059-23.373-62.299-22.553-86.109 1.257-32.967 32.967-33.114 75.539-71.913 114.339-40.023 40.023-61.11 20.378-105.006 64.275-31.024 31.026-19.737 88.874 10.608 119.219zm427.343-367.944c14.025-14.022 35.258 7.167 21.213 21.213-12.324 15.661-42.499 30.81-65.114 93.777l-49.876-49.877c63.18-22.691 77.926-52.64 93.777-65.113zm-132.479 68.838 84.853 84.853-21.213 21.213-84.854-84.853zm-284.257 201.101c37.32-37.32 59.112-18.381 105.006-64.275 43.271-43.271 44.496-86.922 71.913-114.34 12.411-12.41 32.172-12.799 44.336-.635 7.838 7.838 120.641 120.64 126.006 126.005 12.048 12.049 11.763 31.938-.636 44.336-27.462 27.462-71.029 28.602-114.34 71.913-45.773 45.774-26.979 67.709-64.275 105.006-18.381 18.38-57.945 8.24-76.792-10.607l-80.611-80.611c-19.672-19.671-28.43-58.97-10.607-76.792z"/><path d="m79.961 369.037 42.42 42.42c5.857 5.858 15.355 5.858 21.213 0s5.858-15.355 0-21.213l-31.813-31.813 21.213-21.213 10.603 10.603c5.856 5.858 15.354 5.858 21.213 0 5.858-5.858 5.858-15.355 0-21.213l-10.603-10.603 21.213-21.214 31.814 31.814c5.857 5.857 15.355 5.858 21.213 0s5.858-15.355 0-21.213l-31.814-31.814 21.213-21.214 10.604 10.604c5.857 5.858 15.355 5.858 21.213 0s5.858-15.355 0-21.213l-10.604-10.604 21.209-21.209 31.82 31.813c5.857 5.856 15.355 5.856 21.213-.002 5.857-5.859 5.856-15.356-.002-21.213l-42.427-42.417c-5.767-5.766-15.302-5.909-21.212.001-8.749 8.749-161.292 161.295-169.698 169.702-5.849 5.844-5.871 15.341-.001 21.211z"/></g></svg>