<svg id="Capa_1" enable-background="new 0 0 512 512" height="512" viewBox="0 0 512 512" width="512" xmlns="http://www.w3.org/2000/svg"><g><circle cx="135.999" cy="135" r="15"/><circle cx="375.999" cy="135" r="15"/><path d="m256 90c-72.617 0-105 41.635-105 135 0 57.897 47.103 105 105 105s105-47.103 105-105c0-93.365-32.383-135-105-135zm0 210c-41.355 0-75-33.645-75-75 0-40.618 6.285-68.219 19.213-84.38 11.255-14.068 28.981-20.62 55.787-20.62s44.532 6.552 55.787 20.62c12.928 16.161 19.213 43.762 19.213 84.38 0 41.355-33.645 75-75 75z"/><path d="m279.604 148h-47.574c-12.177 0-23.057 7.269-27.716 18.519-4.66 11.25-2.108 24.083 6.502 32.694l23.788 23.787c5.849 5.849 13.53 8.773 21.213 8.773 7.682 0 15.365-2.925 21.213-8.773l23.788-23.787c8.61-8.611 11.163-21.444 6.502-32.694-4.66-11.25-15.539-18.519-27.716-18.519zm-23.787 53.787-23.787-23.787h47.573z"/><path d="m275.394 244.394c-5.18 5.18-12.068 8.033-19.394 8.033s-14.213-2.853-19.394-8.033c-5.857-5.858-15.354-5.858-21.213 0-5.858 5.858-5.858 15.355 0 21.213 10.846 10.846 25.267 16.82 40.606 16.82s29.76-5.974 40.606-16.82c5.858-5.858 5.858-15.355 0-21.213-5.856-5.859-15.354-5.858-21.211 0z"/><path d="m422 0c-31.974 0-60.907 16.659-77.029 43.406-27.275-8.786-57.387-13.406-88.971-13.406s-61.696 4.62-88.971 13.406c-16.122-26.747-45.055-43.406-77.029-43.406-49.626 0-90 40.374-90 90 0 17.226 4.886 33.972 14.129 48.428 6.539 10.227 15.036 18.969 24.948 25.777-6.001 18.855-9.077 39.2-9.077 60.795 0 67.031 30.295 131.453 81.505 174.444-12.657 47.717 2.707 87.521 11.078 104.264 2.542 5.082 7.735 8.292 13.417 8.292 26.936 0 49.704-3.638 85.84-45.756 8.26 9.634 20.505 15.756 34.16 15.756s25.9-6.122 34.16-15.756c36.136 42.118 58.904 45.756 85.84 45.756 5.682 0 10.875-3.21 13.417-8.292 8.371-16.742 23.736-56.547 11.078-104.264 51.21-42.991 81.505-107.413 81.505-174.444 0-21.595-3.076-41.94-9.077-60.794 9.912-6.808 18.409-15.551 24.948-25.777 9.243-14.457 14.129-31.203 14.129-48.429 0-49.626-40.374-90-90-90zm-392 90c0-33.084 26.916-60 60-60 19.537 0 37.367 9.333 48.486 24.617-14.889 6.999-28.6 15.411-40.83 25.163-19.809 15.796-35.424 34.589-46.648 55.876-13.218-11.22-21.008-27.687-21.008-45.656zm115.603 391.794c-6.917-17.21-14.429-47.323-2.924-81.842.284-.676.534-1.362.713-2.062.664-1.879 1.37-3.767 2.152-5.669 15.552 1.077 31.948 7.417 61.533 44.785-29.644 37.523-45.568 43.754-61.474 44.788zm110.397-29.794c-8.271 0-15-6.729-15-15s6.729-15 15-15 15 6.729 15 15-6.729 15-15 15zm110.397 29.794c-15.906-1.034-31.831-7.265-61.473-44.789 29.585-37.367 45.98-43.708 61.533-44.785.781 1.902 1.487 3.79 2.152 5.669.18.7.429 1.386.713 2.063 11.505 34.518 3.992 64.632-2.925 81.842zm22.618-112.24c-2.66-4.651-7.615-7.554-13.015-7.554-26.063 0-49.557 3.733-85.818 45.781-8.26-9.648-20.515-15.781-34.182-15.781s-25.922 6.133-34.182 15.781c-36.261-42.048-59.755-45.781-85.818-45.781-5.4 0-10.355 2.904-13.015 7.554-39.732-37.135-62.985-89.845-62.985-144.554 0-113.981 98.44-165 196-165s196 51.019 196 165c0 54.709-23.253 107.419-62.985 144.554zm71.977-233.899c-11.223-21.287-26.839-40.08-46.648-55.876-12.23-9.752-25.942-18.164-40.83-25.163 11.119-15.283 28.949-24.616 48.486-24.616 33.084 0 60 26.916 60 60 0 17.969-7.79 34.436-21.008 45.655z"/></g></svg>