<svg id="Capa_1" enable-background="new 0 0 512 512" height="512" viewBox="0 0 512 512" width="512" xmlns="http://www.w3.org/2000/svg"><g><path d="m296.235 226.487c6.143-5.558 6.616-15.044 1.058-21.187-5.559-6.142-15.044-6.617-21.187-1.058-5.529 5.003-12.669 7.758-20.106 7.758-7.43 0-14.565-2.751-20.095-7.747-6.149-5.555-15.634-5.073-21.187 1.073-5.554 6.147-5.073 15.632 1.073 21.186 11.055 9.988 25.334 15.488 40.209 15.488 14.891 0 29.18-5.51 40.235-15.513z"/><path d="m61 467v30c0 8.284 6.716 15 15 15h360c8.284 0 15-6.716 15-15v-30c0-85.588-65.708-156.696-150-164.324v-9.956c19.913-8.107 37.617-21.546 50.647-38.611 15.932-20.865 24.353-45.8 24.353-72.109v-62c0-19.677-5.174-39.392-15-57.281v-47.719c0-8.284-6.716-15-15-15h-90c-66.168 0-120 53.832-120 120v62c0 26.309 8.421 51.244 24.353 72.109 13.03 17.066 30.734 30.504 50.647 38.611v9.956c-84.023 7.604-150 78.464-150 164.324zm195-45c41.355 0 75-33.645 75-75v-7.278c10.678 3.786 20.743 8.876 30 15.084v127.194h-210v-127.194c9.257-6.208 19.322-11.298 30-15.084v7.278c0 41.355 33.645 75 75 75zm-165 45c0-32.072 11.249-61.562 30-84.748v99.748h-30zm330 0v15h-30v-99.748c18.75 23.186 30 52.676 30 84.748zm-165-437h75v36.698c0 2.695.727 5.34 2.102 7.658 8.518 14.347 12.854 29.627 12.895 45.42-80.341-2.411-107.459-23.789-109.511-25.513-4.209-4.507-10.307-5.489-16.057-3.19l-54.134 21.654c3.716-46.238 42.528-82.727 89.705-82.727zm-25.692 237.756c-38.464-11.533-64.308-45.996-64.308-85.756v-36.844l57.771-23.109c14.7 9.467 50.184 25.739 122.229 27.748v32.205c0 39.76-25.844 74.223-64.308 85.756-6.347 1.903-10.692 7.743-10.692 14.368v34.876c0 8.284 6.716 15 15 15 5.07 0 10.073.291 15 .838v14.162c0 24.813-20.187 45-45 45s-45-20.187-45-45v-14.162c4.927-.547 9.93-.838 15-.838 8.284 0 15-6.716 15-15v-34.876c0-6.625-4.346-12.465-10.692-14.368z"/></g></svg>