<svg id="Capa_1" enable-background="new 0 0 512 512" height="512" viewBox="0 0 512 512" width="512" xmlns="http://www.w3.org/2000/svg"><g><path d="m376 180v-.787c8.009 16.959 15 41.558 15 75.787 0 8.284 6.716 15 15 15h60c8.284 0 15-6.716 15-15 0-69.183-32.66-102.368-60.058-118.024-16.721-9.555-33.423-13.729-44.942-15.555v-1.421c0-66.32-53.671-120-120-120-66.319 0-120 53.671-120 120v1.421c-11.52 1.826-28.222 6.001-44.942 15.555-27.398 15.656-60.058 48.841-60.058 118.024 0 8.284 6.716 15 15 15h60c8.284 0 15-6.716 15-15 0-35.142 7.402-59.852 15-75.96v.96c0 50.229 30.941 92.783 75 110.72v9.956c-21.257 1.923-42.821 8.877-51.064 13.138-58.189 25.523-98.936 83.681-98.936 151.186v32c0 8.284 6.716 15 15 15h360c8.284 0 15-6.716 15-15v-32c0-67.504-40.747-125.662-98.936-151.186-9.073-4.69-30.621-11.288-51.064-13.138v-9.956c43.986-17.908 75-60.414 75-110.72zm30.057-16.977c26.309 15.033 41.176 40.89 44.313 76.976h-29.78c-1.982-35.663-10.887-61.78-20.738-80.213 2.06.978 4.135 2.054 6.205 3.237zm-314.648 76.977h-29.78c3.1-35.639 17.645-61.306 43.354-76.421 2.389-1.404 4.786-2.663 7.164-3.792-9.851 18.434-18.756 44.549-20.738 80.213zm164.591-210c49.739-.001 90 40.252 90 90h-180c0-49.74 40.253-90.001 90-90zm42.286 300.565c10.209.926 20.093 2.991 29.525 6.071-2.989 9.906-8.019 19.128-14.864 27.11-9.053 10.559-21.147 7.166-24.638 5.874-5.439-2.012-11.493-6.416-14.805-13.154 11.428-4.828 20.461-14.234 24.782-25.901zm-59.786 25.893c-3.311 6.743-9.368 11.15-14.81 13.163-3.491 1.291-15.584 4.685-24.639-5.875-6.844-7.982-11.874-17.205-14.863-27.11 9.451-3.086 19.355-5.154 29.587-6.077 4.312 11.663 13.323 21.067 24.725 25.899zm182.5 108.542v17h-330v-17c0-49.13 26.384-92.208 65.723-115.826 4.28 12.413 10.873 23.975 19.554 34.1 10.077 11.752 23.947 17.999 38.65 17.999 14.69 0 30.161-6.35 41.072-17.919 10.895 11.552 26.359 17.919 41.072 17.919 14.702 0 28.574-6.248 38.649-17.999 8.682-10.125 15.276-21.687 19.555-34.1 39.341 23.618 65.725 66.696 65.725 115.826zm-139.308-199.244c-6.347 1.903-10.692 7.743-10.692 14.368v34.876c0 .228.024.449.034.674-.358 7.957-6.954 14.326-15.034 14.326-8.271 0-15-6.729-15-15v-34.876c0-6.625-4.346-12.465-10.692-14.368-38.464-11.533-64.308-45.996-64.308-85.756v-30h180v30c0 39.76-25.844 74.223-64.308 85.756z"/><path d="m276.106 202.241c-5.529 5.004-12.67 7.759-20.106 7.759-7.43 0-14.565-2.751-20.095-7.747-14.742-13.317-34.823 8.967-20.113 22.259 11.054 9.987 25.333 15.488 40.208 15.488 14.891 0 29.18-5.51 40.235-15.513 14.704-13.306-5.404-35.572-20.129-22.246z"/></g></svg>