<svg id="Capa_1" enable-background="new 0 0 511.999 511.999" height="512" viewBox="0 0 511.999 511.999" width="512" xmlns="http://www.w3.org/2000/svg"><g><path d="m255.999 357.262c33.084 0 60-26.916 60-60s-26.916-60-60-60-60 26.916-60 60 26.916 60 60 60zm0-90c16.542 0 30 13.458 30 30s-13.458 30-30 30-30-13.458-30-30 13.458-30 30-30z"/><path d="m255.999 192.262c33.084 0 60-26.916 60-60s-26.916-60-60-60-60 26.916-60 60 26.916 60 60 60zm0-90c16.542 0 30 13.458 30 30s-13.458 30-30 30-30-13.458-30-30 13.458-30 30-30z"/><path d="m89.977 327.8c-28.686 16.562-38.525 53.274-21.961 81.962 16.464 28.517 53.185 38.576 81.961 21.961 28.685-16.561 38.525-53.273 21.961-81.961-16.561-28.686-53.274-38.526-81.961-21.962zm45 77.943c-14.327 8.27-32.709 3.345-40.981-10.981-8.271-14.328-3.347-32.709 10.981-40.981 14.498-8.369 32.805-3.179 40.981 10.981 8.271 14.325 3.345 32.709-10.981 40.981z"/><path d="m119.971 259.784c-31.519 0-54.714 13.006-59.994 16.054-57.304 33.083-77.008 106.62-43.924 163.924 33.084 57.302 106.618 77.006 163.924 43.922 5.209-3.008 28.084-16.531 43.902-43.935 17.314-29.987 46.929-29.983 64.24 0 15.78 27.34 38.695 40.929 43.902 43.936 18.852 10.884 39.452 16.053 59.799 16.053 41.502 0 81.925-21.524 104.125-59.976 33.084-57.305 13.379-130.841-43.924-163.924-5.367-3.098-28.456-16.053-59.993-16.053-34.688-.001-49.357-37.646-32.108-67.518 15.728-27.248 16.08-53.93 16.08-60.004 0-66.168-53.832-120-120-120s-120 53.832-120 120c0 6.198.346 32.738 16.08 60.004 17.208 29.801 2.658 67.515-32.109 67.517zm60.462-78.118c-1.573-6.449-14.433-21.054-14.433-49.405 0-49.626 40.374-90 90-90s90 40.374 90 90c0 28.233-12.99 43.488-14.433 49.405-24.029 47.865 2.645 104.599 55.542 107.962 5.702 1.649 25.588-1.854 49.914 12.19 42.978 24.813 57.757 79.965 32.944 122.943-24.813 42.977-79.967 57.753-122.944 32.942-24.51-14.152-30.881-32.603-35.418-37.044-28.632-44.343-82.26-44.831-111.207 0-4.526 4.43-11.072 22.987-35.418 37.043-42.978 24.814-98.131 10.036-122.944-32.941-24.813-42.979-10.034-98.131 32.943-122.943 24.254-14.002 44.435-10.605 49.914-12.19 52.85-3.36 79.591-60.053 55.54-107.962z"/><path d="m362.022 431.723c28.828 16.643 65.524 6.508 81.961-21.961 16.563-28.686 6.727-65.398-21.961-81.962-28.686-16.562-65.398-6.726-81.961 21.962-16.563 28.685-6.728 65.398 21.961 81.961zm4.019-66.961c8.238-14.267 26.588-19.29 40.981-10.981 14.327 8.272 19.252 26.653 10.981 40.981-8.271 14.326-26.656 19.251-40.981 10.981-14.326-8.272-19.252-26.656-10.981-40.981z"/></g></svg>