<svg id="Capa_1" enable-background="new 0 0 512.01 512.01" height="512" viewBox="0 0 512.01 512.01" width="512" xmlns="http://www.w3.org/2000/svg"><path d="m496.994 332.01h-16.509c-6.968-34.192-37.271-60-73.491-60-36.219 0-66.524 25.809-73.493 60h-23.601l-228.51-313.465c-14.631-20.117-42.753-24.557-62.87-9.919-20.059 14.596-24.507 42.792-9.905 62.87l189.964 260.514h-31.585c-8.284 0-15 6.716-15 15 0 57.944 36.744 108.871 90.645 127.546 3.602 21.231 22.114 37.454 44.355 37.454 22.248 0 40.766-16.233 44.359-37.475 27.752-9.676 51.82-28.345 68.151-52.896 2.484.247 4.985.371 7.491.371 36.219 0 66.522-25.808 73.491-60h16.509c8.284 0 15-6.716 15-15s-6.716-15-15.001-15zm-464.128-278.175c-4.863-6.687-3.381-16.086 3.306-20.951 6.681-4.862 16.059-3.428 20.967 3.32l215.636 295.806h-37.067zm254.128 428.175c-8.271 0-15-6.729-15-15s6.729-15 15-15 15 6.729 15 15-6.729 15-15 15zm108.75-91.414c-6.613-1.699-13.541 1.281-16.853 7.253-11.785 21.25-30.654 37.758-52.935 46.689-7.789-13.452-22.331-22.528-38.962-22.528-16.632 0-31.175 9.077-38.964 22.531-34.855-13.876-59.652-45.415-64.97-82.531h119.207c.006 0 .011.001.017.001.008 0 .017-.001.026-.001h44.684c8.284 0 15-6.716 15-15 0-24.813 20.187-45 45-45s45 20.187 45 45c0 29.341-27.77 50.911-56.25 43.586z"/></svg>