<svg id="Capa_1" enable-background="new 0 0 512 512" height="512" viewBox="0 0 512 512" width="512" xmlns="http://www.w3.org/2000/svg"><g><path d="m361 120h-15.642c-2.523-29.646-12.494-57.22-28.719-78.853-19.9-26.534-46.762-41.147-75.639-41.147-28.876 0-55.739 14.613-75.64 41.147-16.224 21.633-26.195 49.207-28.718 78.853h-15.642c-8.284 0-15 6.716-15 15v90c0 57.225 36.467 107.836 90 126.863v145.137c0 8.284 6.716 15 15 15h60c8.284 0 15-6.716 15-15v-145.137c53.533-19.026 90-69.638 90-126.863v-90c0-8.284-6.716-15-15-15zm-15 30v30h-30v-30zm-156.64-90.853c14.098-18.796 32.436-29.147 51.64-29.147s37.543 10.351 51.64 29.147c12.416 16.554 20.219 37.767 22.585 60.853h-14.225c-8.284 0-15 6.716-15 15v90c0 24.813-20.187 45-45 45s-45-20.187-45-45v-90c0-8.284-6.716-15-15-15h-14.224c2.365-23.085 10.169-44.299 22.584-60.853zm-23.36 90.853v30h-30v-30zm101.203 176.288c-6.6 1.727-11.203 7.689-11.203 14.511v141.201h-30v-141.2c0-6.822-4.604-12.785-11.203-14.511-46.395-12.139-78.797-53.79-78.797-101.289v-15h30v15c0 41.355 33.645 75 75 75s75-33.645 75-75v-15h30v15c0 47.498-32.402 89.149-78.797 101.288z"/><path d="m316 467c0 24.813 20.187 45 45 45s45-20.187 45-45-20.187-45-45-45-45 20.187-45 45zm60 0c0 8.271-6.729 15-15 15s-15-6.729-15-15 6.729-15 15-15 15 6.729 15 15z"/></g></svg>