<svg id="Capa_1" enable-background="new 0 0 512 512" height="512" viewBox="0 0 512 512" width="512" xmlns="http://www.w3.org/2000/svg"><g><path d="m497 121h-227c0-49.626-40.374-90-90-90s-90 40.374-90 90v132.566l-26.087 78.259c-36.116 5.375-63.913 36.587-63.913 74.175 0 41.355 33.645 75 75 75h362c41.355 0 75-33.645 75-75 0-37.588-27.797-68.8-63.913-74.175l-26.856-80.568c-2.043-6.126-7.775-10.257-14.231-10.257h-137v-30h227c8.284 0 15-6.716 15-15v-60c0-8.284-6.716-15-15-15zm-377 120v-90h120v90zm60-180c33.084 0 60 26.916 60 60h-120c0-33.084 26.916-60 60-60zm120 345c0 24.813-20.187 45-45 45s-45-20.187-45-45 20.187-45 45-45 45 20.187 45 45zm14.959-45h62.082c-9.438 12.544-15.041 28.129-15.041 45s5.603 32.456 15.041 45h-62.082c9.438-12.544 15.041-28.129 15.041-45s-5.603-32.456-15.041-45zm-119.918 90h-60.082c9.438-12.544 15.041-28.129 15.041-45s-5.603-32.456-15.041-45h60.082c-9.438 12.544-15.041 28.129-15.041 45s5.603 32.456 15.041 45zm-165.041-45c0-24.813 20.187-45 45-45s45 20.187 45 45-20.187 45-45 45-45-20.187-45-45zm452 0c0 24.813-20.187 45-45 45s-45-20.187-45-45c0-24.792 20.153-44.965 44.938-44.999.02 0 .04.002.06.002s.041-.002.061-.002c24.786.033 44.941 20.206 44.941 44.999zm-85.812-135 20 60h-320.376l20-60zm-126.188-120h152v30h-152zm212 30h-30v-30h30z"/><circle cx="75" cy="406" r="15"/><circle cx="255" cy="406" r="15"/><circle cx="437" cy="406" r="15"/></g></svg>