<svg id="Capa_1" enable-background="new 0 0 512 512" height="512" viewBox="0 0 512 512" width="512" xmlns="http://www.w3.org/2000/svg"><path d="m391.001 300c24.813 0 45-20.187 45-45v-60c0-24.813-20.187-45-45-45-7.681.577-14.457-1.838-20.784 3.806-18.94 16.891-43.521 26.194-69.216 26.194-25.585 0-49.567-9.1-69.354-26.316-6.297-5.48-12.915-3.119-20.646-3.684-24.813 0-45 20.187-45 45v4.272c-111.774-35.191-52.301-103.753 61.576-108.962 7.088 34.038 37.314 59.69 73.424 59.69 41.355 0 75-33.645 75-75s-33.645-75-75-75c-36.327 0-66.696 25.964-73.546 60.307-171.104 7.285-205.105 131.701-61.454 170.24v24.453c0 24.813 20.187 45 45 45 7.681-.577 14.46 1.837 20.787-3.808 9.28-8.281 19.923-14.725 31.387-19.155-2.873 102.429-22.174 157.722-22.174 174.963 0 33.084 26.916 60 60 60s60-26.916 60-60c0-17.22-19.317-72.621-22.176-174.97 11.338 4.413 21.934 10.853 31.475 19.237 6.312 5.548 12.985 3.163 20.701 3.733zm-90-270c24.813 0 45 20.187 45 45s-20.187 45-45 45-45-20.187-45-45 20.187-45 45-45zm-84.724 240h-5.275c-8.271 0-15-6.729-15-15v-60c0-8.271 6.729-15 15-15h5.358c51.992 41.773 122.462 38.249 169.364 0h5.277c8.271 0 15 6.729 15 15v60c0 8.271-6.729 15-15 15h-5.322c-51.525-41.717-122.444-38.309-169.402 0zm114.724 182c0 16.542-13.458 30-30 30s-30-13.458-30-30c0-2.085 20.591-88.863 22.346-181.698 5.426-.392 9.638-.409 15.306-.006 2.004 106.646 22.348 170.847 22.348 181.704z"/></svg>