<svg id="Capa_1" enable-background="new 0 0 513 513" height="512" viewBox="0 0 513 513" width="512" xmlns="http://www.w3.org/2000/svg"><path d="m497.562 1s-241.041-1-241.062-1c-3.966 0-7.773 1.571-10.584 4.372-2.827 2.814-4.416 6.639-4.416 10.628v77.713c-5.608-1.105-10.787-1.713-15-1.713-24.813 0-45 20.187-45 45s20.187 45 45 45c4.213 0 9.392-.608 15-1.713v61.713h-81.388c-10.343 0-17.604 10.255-14.135 20.021 3.625 10.206 5.522 20.292 5.522 24.979 0 8.271-6.729 15-15 15s-15-6.729-15-15c0-4.688 1.896-14.774 5.521-24.979 3.462-9.746-3.771-20.021-14.135-20.021h-97.385c-8.284 0-15 6.716-15 15v241c0 8.272 6.697 14.983 14.969 15 0 0 482.021 1 482.031 1 3.972 0 7.783-1.576 10.596-4.382 2.82-2.814 4.404-6.634 4.404-10.618 0-20.539 0-461.466 0-482 0-8.26-6.678-14.966-14.938-15zm-256.062 398.614v82.855l-211-.438v-211.031h62.713c-1.105 5.608-1.713 10.786-1.713 15 0 24.813 20.187 45 45 45s45-20.187 45-45c0-4.213-.608-9.392-1.713-15h61.713v81.388c0 10.342 10.254 17.604 20.021 14.135 10.208-3.626 20.293-5.523 24.979-5.523 8.271 0 15 6.729 15 15s-6.729 15-15 15c-4.688 0-14.774-1.896-24.979-5.521-9.747-3.461-20.021 3.771-20.021 14.135zm241 83.355-211-.438v-63.244c5.608 1.105 10.786 1.713 15 1.713 24.813 0 45-20.187 45-45s-20.187-45-45-45c-4.213 0-9.391.608-15 1.714v-61.714h61.713c-1.105 5.608-1.713 10.786-1.713 15 0 24.813 20.187 45 45 45s45-20.187 45-45c0-4.163-.593-9.267-1.673-14.797l62.673.644zm0-241.124-82.232-.844c-10.414-.111-17.778 10.195-14.289 20.02 3.625 10.205 5.521 20.291 5.521 24.979 0 8.271-6.729 15-15 15s-15-6.729-15-15c0-4.688 1.896-14.774 5.521-24.979 3.462-9.746-3.771-20.021-14.135-20.021h-81.386v-81.388c0-10.343-10.255-17.604-20.021-14.135-10.206 3.626-20.291 5.523-24.979 5.523-8.271 0-15-6.729-15-15s6.729-15 15-15c4.688 0 14.774 1.896 24.98 5.521 9.743 3.462 20.021-3.769 20.021-14.135v-82.323l211 .875v210.907z"/></svg>