<svg id="Capa_1" enable-background="new 0 0 512 512" height="512" viewBox="0 0 512 512" width="512" xmlns="http://www.w3.org/2000/svg"><g><path d="m242.549 265.361-18.552 37.59-41.483 6.028c-12.28 1.785-17.202 16.92-8.313 25.585l30.018 29.26-7.086 41.315c-2.098 12.231 10.776 21.59 21.764 15.813l37.103-19.505 37.104 19.506c10.971 5.768 23.865-3.564 21.764-15.813l-7.086-41.315 30.018-29.26c8.886-8.662 3.972-23.8-8.313-25.585l-41.483-6.028-18.552-37.59c-5.492-11.128-21.409-11.133-26.903-.001zm33.336 66.145 19.21 2.792-13.901 13.55c-3.535 3.446-5.148 8.411-4.314 13.277l3.282 19.132-17.182-9.033c-4.368-2.297-9.591-2.298-13.96 0l-17.182 9.033 3.282-19.132c.834-4.866-.779-9.831-4.314-13.277l-13.901-13.55 19.21-2.792c4.885-.71 9.109-3.779 11.294-8.206l8.591-17.407 8.591 17.407c2.185 4.427 6.409 7.496 11.294 8.206z"/><path d="m91 347c0 90.981 74.019 165 165 165s165-74.019 165-165c0-85.925-66.023-156.707-150-164.311v-67.462c18.566-12.644 30-51.947 30-70.227 0-24.813-20.187-45-45-45s-45 20.187-45 45c0 19.265 11.87 57.88 30 70.226v67.463c-83.977 7.604-150 78.386-150 164.311zm300 0c0 74.439-60.561 135-135 135s-135-60.561-135-135 60.561-135 135-135 135 60.561 135 135zm-135-317c8.271 0 15 6.729 15 15 0 10.696-7.283 34.335-15 43.543-7.794-9.3-15-33.067-15-43.543 0-8.271 6.729-15 15-15z"/></g></svg>