<svg id="Capa_1" enable-background="new 0 0 512 512" height="512" viewBox="0 0 512 512" width="512" xmlns="http://www.w3.org/2000/svg"><path d="m106 497c0 8.284 6.716 15 15 15h90c8.284 0 15-6.716 15-15v-76h60v76c0 8.284 6.716 15 15 15h90c8.284 0 15-6.716 15-15 0-1.478.003-360.063-.005-362.094-.028-4.356-1.962-8.391-5.03-11.117l-135-120c-5.683-5.052-14.248-5.052-19.931 0l-135 120c-3.107 2.762-5.001 6.822-5.03 11.117-.007 2.03-.004 360.223-.004 362.094zm30-106v-60h240v60c-27.641 0-215.226 0-240 0zm150-150v60h-60v-60zm90 60h-60v-60h60zm-180 0h-60v-60h60zm180-90c-27.64 0-215.226 0-240 0v-61h240zm-180 271h-60v-61h60zm180 0h-60v-61h60zm-120-446.931 95.547 84.931h-191.094z"/></svg>