<svg id="Capa_1" enable-background="new 0 0 512 512" height="512" viewBox="0 0 512 512" width="512" xmlns="http://www.w3.org/2000/svg"><g><path d="m452 152.509v-61.509h15c8.284 0 15-6.716 15-15s-6.716-15-15-15h-120c-8.284 0-15 6.716-15 15s6.716 15 15 15h15v60h-90v-105c0-8.284-6.716-15-15-15h-242c-8.284 0-15 6.716-15 15v390c0 8.284 6.716 15 15 15h62.041c13.697 18.204 35.475 30 59.959 30s46.262-11.796 59.959-30h47.621c6.192 17.458 22.865 30 42.42 30s36.228-12.542 42.42-30h35.16c6.192 17.458 22.865 30 42.42 30s36.228-12.542 42.42-30h47.58c4.978 0 9.631-2.469 12.421-6.591 2.791-4.122 3.354-9.359 1.506-13.98l-52.972-132.43c31.186-9.092 54.045-37.917 54.045-71.999 0-36.219-25.808-66.522-60-73.491zm-60-61.509h30v60h-30zm30 90v90h-150v-90zm-392-120h212v210h-212zm107 390c-24.813 0-45-20.187-45-45s20.187-45 45-45 45 20.187 45 45-20.187 45-45 45zm150 0c-8.271 0-15-6.729-15-15s6.729-15 15-15 15 6.729 15 15-6.729 15-15 15zm120 0c-8.271 0-15-6.729-15-15s6.729-15 15-15 15 6.729 15 15-6.729 15-15 15zm42.42-30c-6.192-17.458-22.865-30-42.42-30s-36.228 12.542-42.42 30h-35.16c-6.192-17.458-22.865-30-42.42-30s-36.228 12.542-42.42 30h-34.089c.988-4.848 1.509-9.864 1.509-15 0-41.355-33.645-75-75-75s-75 33.645-75 75c0 5.136.521 10.152 1.509 15h-33.509v-120h396.845l48 120zm2.58-152.58v-84.84c17.459 6.192 30 22.865 30 42.42s-12.541 36.228-30 42.42z"/><path d="m197 91h-120c-8.284 0-15 6.716-15 15v120c0 8.284 6.716 15 15 15h120c8.284 0 15-6.716 15-15v-120c0-8.284-6.716-15-15-15zm-15 120h-90v-90h90z"/><circle cx="137" cy="406" r="15"/></g></svg>