<svg id="Capa_1" enable-background="new 0 0 511.94 511.94" height="512" viewBox="0 0 511.94 511.94" width="512" xmlns="http://www.w3.org/2000/svg"><g><path d="m76.696 345.955 13.36 106.875c.938 7.506 7.319 13.14 14.884 13.14h180c7.564 0 13.946-5.633 14.884-13.14l30-240c.036-.291.116-1.678.116-1.86 0-28.312-25.633-52.502-68.97-65.517-12.985-24.212-38.15-39.483-66.03-39.483s-53.045 15.271-66.03 39.483c-39.676 11.915-64.498 33.201-68.411 58.438-27.833 26.306-71.524 74.901-57.946 110.604 10.307 27.104 45.125 31.556 74.143 31.46zm15.236-119.985h199.89c-36.408 62.105-116.861 85.025-188.741 89.194zm179.765 210h-153.515l-11.372-90.972c67.489-4.137 137.451-22.729 185.086-70.622zm-128.367-263.413c4.537-1.191 8.255-4.436 10.049-8.77 6.998-16.898 23.311-27.817 41.561-27.817s34.563 10.919 41.561 27.817c1.794 4.334 5.512 7.579 10.049 8.77 20.976 5.508 37.43 14.058 46.254 23.413h-195.727c8.823-9.355 25.277-17.905 46.253-23.413zm-79.469 70.718 9.085 72.678c-35.08-.332-41.288-9.325-42.352-12.119-5.69-14.947 22.519-48.774 33.267-60.559z"/><path d="m436.94 317.227v-183.156c25.849-6.677 45-30.195 45-58.101v-15c0-8.284-6.716-15-15-15h-90c-8.284 0-15 6.716-15 15v15c0 27.906 19.151 51.424 45 58.101v183.156c-42.511 7.163-75 44.227-75 88.743v45c0 8.284 6.716 15 15 15h150c8.284 0 15-6.716 15-15v-45c0-44.516-32.49-81.581-75-88.743zm-45-241.257h60c0 39.706-60 39.657-60 0zm90 360h-120v-30c0-33.084 26.916-60 60-60s60 26.916 60 60z"/></g></svg>