<svg id="Capa_1" enable-background="new 0 0 511.884 511.884" height="512" viewBox="0 0 511.884 511.884" width="512" xmlns="http://www.w3.org/2000/svg"><path d="m497 450.94h-22.507l-83.493-139.155v-145.845c0-3.109-1.018-6.359-3-9l-90-120c-5.991-7.988-17.999-8-24 0l-85.5 114h-173.5c-8.284 0-15 6.716-15 15v300c0 19.832 30 19.86 30 0v-285h31v195c0 24.813 20.187 45 45 45s45-20.187 45-45v-195h30v285c0 19.832 30 19.86 30 0v-135h30v135c0 19.832 30 19.86 30 0v-15h30v15c0 19.832 30 19.86 30 0v-135h30v135c0 19.832 30 19.86 30 0v-95.845l62.138 103.563c2.589 4.313 7.353 7.283 12.951 7.283h30.911c19.832-.001 19.86-30.001 0-30.001zm-211-380 60 80h-120zm-180 320c-8.271 0-15-6.729-15-15s6.729-15 15-15 15 6.729 15 15-6.729 15-15 15zm15-57.42c-4.695-1.665-9.742-2.58-15-2.58s-10.305.915-15 2.58v-152.58h30zm90-152.58h150v120h-30v-45c0-24.813-20.187-45-45-45s-45 20.187-45 45v45h-30zm90 180h-30v-30h30zm0-60h-30v-45c0-8.271 6.729-15 15-15s15 6.729 15 15zm-30 120v-30h30v30z"/></svg>