<svg id="Capa_1" enable-background="new 0 0 512 512" height="512" viewBox="0 0 512 512" width="512" xmlns="http://www.w3.org/2000/svg"><path d="m497 0h-90c-4.377 0-8.482 1.962-11.212 5.036l-216.048 243.105-44.522-77.911c-2.744-4.803-7.917-7.701-13.439-7.552-5.53.153-10.526 3.338-13 8.286l-42.426 84.853c-2.887 5.774-1.755 12.749 2.81 17.314l53.033 53.033-95.836 95.836h-11.36c-8.284 0-15 6.716-15 15v60c0 8.284 6.716 15 15 15h60c8.284 0 15-6.716 15-15v-11.36l95.835-95.835 53.033 53.033c4.541 4.541 11.508 5.713 17.314 2.81l84.853-42.426c4.948-2.474 8.133-7.471 8.286-13 .154-5.53-2.749-10.695-7.552-13.44l-77.911-44.522 243.105-216.047c3.193-2.833 5.037-7.065 5.037-11.213v-90c0-8.284-6.716-15-15-15zm-75 30h60v60h-60zm-246.766 306.777c-5.844-5.849-5.852-15.372-.006-21.218 2.925-2.925 6.765-4.387 10.607-4.387 3.841 0 7.683 1.462 10.607 4.386 5.849 5.849 5.849 15.365 0 21.214-5.847 5.847-15.359 5.848-21.208.005zm-52.156-127.328c4.362 7.633 36.211 63.367 43.467 76.065-4.534 2.146-8.784 5.085-12.53 8.831-3.718 3.718-6.639 7.934-8.781 12.431l-47.213-47.213zm-58.684 259.371c-5.478 5.478-4.215 12.004-4.394 13.18h-30v-30c1.174-.179 7.698 1.089 13.18-4.394l100.229-100.229c7.077 7.077 13.251 13.251 21.213 21.213zm188.043-54.841-47.213-47.212c4.497-2.142 8.713-5.064 12.431-8.782 3.746-3.746 6.685-7.995 8.831-12.53 11.911 6.807 69.147 39.514 76.065 43.467zm-23.879-101.892c-2.127-6.49-5.753-12.592-10.904-17.742-5.15-5.15-11.252-8.776-17.742-10.903l-4.465-7.814 196.553-221.168v50.54c0 8.284 6.716 15 15 15h50.54l-221.168 196.552z"/></svg>