<svg id="Capa_1" enable-background="new 0 0 512.006 512.006" height="512" viewBox="0 0 512.006 512.006" width="512" xmlns="http://www.w3.org/2000/svg"><g><path d="m497.003 272.005c8.284 0 15-6.716 15-15v-60c0-8.284-6.716-15-15-15h-482c-8.284 0-15 6.716-15 15v60c0 8.284 6.716 15 15 15h16v150h-16c-8.284 0-15 6.716-15 15v60c0 8.284 6.716 15 15 15h482c8.284 0 15-6.716 15-15v-60c0-8.284-6.716-15-15-15h-16v-150zm-467-60h452v30h-452zm226 78.541 65.73 131.459h-131.46zm-90 112.918-65.73-131.459h131.46zm114.27-131.459h131.46l-65.73 131.459zm-219.27 0h5.73l75 150h-80.73zm421 210h-452v-30h452zm-31-60h-80.73l75-150h5.73z"/><path d="m317.003 150.005c24.813 0 45-20.187 45-45 0-1.881-.13-3.731-.355-5.552l142.063-71.031c7.41-3.705 10.413-12.715 6.708-20.125-3.704-7.41-12.713-10.414-20.124-6.708l-142.084 71.041c-8.098-7.808-19.098-12.625-31.208-12.625-24.813 0-45 20.187-45 45s20.187 45 45 45zm0-60c8.271 0 15 6.729 15 15s-6.729 15-15 15-15-6.729-15-15 6.729-15 15-15z"/><path d="m8.295 28.421 142.063 71.031c-.225 1.821-.355 3.671-.355 5.552 0 24.813 20.187 45 45 45s45-20.187 45-45-20.187-45-45-45c-12.11 0-23.11 4.817-31.208 12.625l-142.084-71.041c-7.409-3.705-16.419-.701-20.124 6.709s-.702 16.419 6.708 20.124zm186.708 61.584c8.271 0 15 6.729 15 15s-6.729 15-15 15-15-6.729-15-15 6.729-15 15-15z"/></g></svg>