<svg id="Capa_1" enable-background="new 0 0 512 512" height="512" viewBox="0 0 512 512" width="512" xmlns="http://www.w3.org/2000/svg"><path d="m62.106 381.644c2.024 4.973 6.528 8.356 11.429 9.146l180 30c1.574.263 3.244.282 4.932 0l180-30c4.843-.775 9.388-4.13 11.429-9.146l61-150c2.127-5.229 1.138-11.21-2.561-15.477-3.699-4.266-9.481-6.093-14.958-4.729l-143.956 35.84-80.203-148.375c-5.708-10.623-20.829-10.435-26.436 0l-80.202 148.375-143.956-35.84c-5.479-1.364-11.259.463-14.958 4.729-3.698 4.266-4.688 10.247-2.561 15.477zm193.894 9.143-88.759-14.793 88.759-14.793 88.759 14.793zm15-225.498 48.363 89.472-48.363 12.04zm-30 0v101.513l-48.363-12.041zm11.376 135.26c2.426.607 4.977.568 7.248 0l212.364-52.871-45.362 111.546-168.161-28.027c-1.572-.265-3.523-.236-4.932 0l-168.16 28.028-45.361-111.547z"/></svg>