<svg id="Capa_1" enable-background="new 0 0 512 512" height="512" viewBox="0 0 512 512" width="512" xmlns="http://www.w3.org/2000/svg"><g><path d="m466 0h-60c-8.284 0-15 6.716-15 15v210c0 8.284 6.716 15 15 15h15v122c0 66.168-53.832 120-120 120-.033 0-.065-.001-.098-.001 36.466-27.389 60.098-70.985 60.098-119.999v-17c0-57.897-47.103-105-105-105s-105 47.103-105 105v17c0 49.014 23.632 92.61 60.098 119.999-.033 0-.065.001-.098.001-66.168 0-120-53.832-120-120v-122h15c8.284 0 15-6.716 15-15v-210c0-8.284-6.716-15-15-15h-60c-8.284 0-15 6.716-15 15v210c0 8.284 6.716 15 15 15h15v122c0 82.71 67.29 150 150 150 15.672 0 30.788-2.42 45-6.899 14.212 4.479 29.328 6.899 45 6.899 82.71 0 150-67.29 150-150v-122h15c8.284 0 15-6.716 15-15v-210c0-8.284-6.716-15-15-15zm-405 210v-30h30v30zm30-180v120h-30v-120zm90 332v-17c0-41.355 33.645-75 75-75s75 33.645 75 75v17c0 50.262-31.065 93.398-75 111.236-43.935-17.838-75-60.974-75-111.236zm270-332v120h-30v-120zm-30 180v-30h30v30z"/></g></svg>