<svg id="Capa_1" enable-background="new 0 0 512 512" height="512" viewBox="0 0 512 512" width="512" xmlns="http://www.w3.org/2000/svg"><path d="m226 242h60c8.284 0 15-6.716 15-15v-60c0-8.284-6.716-15-15-15h-60c-8.284 0-15 6.716-15 15v60c0 8.284 6.716 15 15 15zm15-60h30v30h-30z"/><path d="m450.643 304.104h.182c-1.831-66.774-16.773-88.195-36.789-113.101 4.403-6.953 6.964-15.182 6.964-24.003 0-24.813-20.187-45-45-45-8.198 0-15.885 2.215-22.512 6.061-5.11-12.787-12.719-24.549-22.488-34.53v-18.531c0-41.355-33.645-75-75-75s-75 33.645-75 75v18.531c-9.769 9.981-17.378 21.743-22.488 34.53-6.627-3.846-14.314-6.061-22.512-6.061-24.813 0-45 20.187-45 45 0 8.821 2.561 17.05 6.964 24.003-20.939 26.044-34.991 47.532-36.789 113.101l.197.001c-19.366 5.938-30.286 23.661-30.372 42.895 0 8.284 6.716 15 15 15 8.225 0 14.895-6.622 14.991-14.823.548-1.606-.549-15.161 15.009-15.177 15.539.009 14.765 14.623 15.001 15.177.096 8.201 6.774 14.823 14.999 14.823 8.284 0 15-6.716 15-15-.083-18.876-10.662-36.702-29.974-42.789h.144c1.603-58.211 13.473-73.616 30.341-94.619 4.55 1.552 9.42 2.407 14.489 2.407 5.258 0 10.305-.915 15-2.58v17.581c0 19.746 5.483 38.234 15 54.028v59.189c-5.409 5.361-13.301 14.844-20.917 30.075-15.98 31.961-24.083 74.592-24.083 126.708 0 8.284 6.716 15 15 15h90c8.284 0 15-6.716 15-15 0-52.116-8.103-94.747-24.083-126.708-7.616-15.231-15.507-24.713-20.917-30.075v-27.1c17.019 11.894 37.707 18.883 60 18.883s42.981-6.989 60-18.883v27.1c-5.409 5.361-13.301 14.844-20.917 30.075-15.98 31.961-24.083 74.592-24.083 126.708 0 8.284 6.716 15 15 15h90c8.284 0 15-6.716 15-15 0-52.116-8.103-94.747-24.083-126.708-7.616-15.231-15.507-24.713-20.917-30.075v-59.189c9.517-15.794 15-34.282 15-54.028v-17.58c4.695 1.665 9.742 2.58 15 2.58 5.069 0 9.939-.855 14.489-2.407 17.108 21.302 28.746 36.712 30.341 94.619l.218-.001c-19.136 6.031-29.963 23.624-30.048 42.789 0 8.284 6.716 15 15 15 8.225 0 14.895-6.622 14.991-14.823.371-.899-.822-15.161 15.009-15.177 9.706.006 14.67 5.345 15.001 15.163v.015c.096 8.2 6.774 14.822 14.999 14.822 8.284 0 15-6.716 15-15-.082-18.272-10.447-36.786-30.357-42.896zm-314.643-122.104c-8.271 0-15-6.729-15-15s6.729-15 15-15 15 6.729 15 15-6.729 15-15 15zm75-107c0-24.813 20.187-45 45-45s45 20.187 45 45v17h-90zm-.255 407h-59.49c1.667-48.129 11.194-78.258 19.305-95.496 3.657-7.771 7.319-13.592 10.44-17.812 3.121 4.22 6.783 10.041 10.44 17.812 8.111 17.238 17.638 47.367 19.305 95.496zm45.255-180c-41.355 0-75-33.645-75-75v-60c0-16.335 5.373-32.113 15.034-45h119.933c9.66 12.887 15.034 28.665 15.034 45v60c-.001 41.355-33.646 75-75.001 75zm104.745 180h-59.49c1.667-48.129 11.194-78.258 19.305-95.496 3.657-7.771 7.319-13.592 10.44-17.812 3.121 4.22 6.783 10.041 10.44 17.812 8.111 17.238 17.638 47.367 19.305 95.496zm15.255-300c-8.271 0-15-6.729-15-15s6.729-15 15-15 15 6.729 15 15-6.729 15-15 15z"/></svg>