<svg id="Capa_1" enable-background="new 0 0 512.008 512.008" height="512" viewBox="0 0 512.008 512.008" width="512" xmlns="http://www.w3.org/2000/svg"><g><path d="m507.698 426.49c-5.781-5.877-15.21-5.979-21.122-.256-.001 0-.02.011-.049.038l-.042-.042.086-.084c-.05.047-1.826 1.711-5.568 4.43v-233.652c0-8.284-6.716-15-15-15s-15 6.716-15 15v14.829c-53.551-1.217-81.129-8.924-107.851-16.402-24.672-6.905-47.975-13.427-87.149-13.427s-62.478 6.522-87.149 13.427c-26.722 7.479-54.299 15.186-107.851 16.402v-74.829c0-53.826 24.534-90.479 69.083-103.208 41.373-11.82 85.018 5.339 107.529 41.065-5.457 2.696-10.085 5.588-13.871 8.672l-17.134-17.136c-5.857-5.858-15.355-5.858-21.213 0s-5.858 15.355 0 21.213l19.394 19.394-19.394 19.394c-5.858 5.858-5.858 15.355 0 21.213 5.857 5.857 15.355 5.858 21.213 0l17.136-17.135c5.181 4.22 11.93 8.084 20.237 11.573 14.183 5.955 31.069 9.957 42.021 9.957 24.813 0 45-20.187 45-45s-20.187-45-45-45c-5.41 0-12.27.979-19.535 2.686-28.343-50.85-88.107-75.888-144.623-59.742-57.731 16.495-90.842 64.627-90.842 132.054v293.651c-3.742-2.719-5.518-4.382-5.568-4.43l.086.084-.041.042c-.008-.007-.044-.042-.044-.042-5.912-5.724-15.346-5.618-21.127.26-5.809 5.906-5.731 15.403.176 21.213 1.304 1.296 18.32 17.497 57.979 33.245 39.657 15.764 101.88 31.066 193.539 31.06 91.659.006 153.882-15.296 193.539-31.06 39.659-15.749 56.675-31.949 57.979-33.246 5.907-5.808 5.985-15.305.176-21.211zm-248.174-328.5c10.717-3.982 21.434-6.066 26.48-6.066 8.271 0 15 6.729 15 15s-6.729 15-15 15c-5.046 0-15.763-2.084-26.48-6.066-9.296-3.455-14.534-6.814-17.063-8.934 2.529-2.12 7.767-5.479 17.063-8.934zm-198.52 143.766c57.863-1.275 88.595-9.863 115.936-17.516 23.615-6.609 44.009-12.316 79.064-12.316s55.449 5.708 79.064 12.316c27.341 7.652 58.073 16.24 115.936 17.516v150.168h-390zm0 180.168h390v25.7c-57.046 26.208-131.706 34.3-195 34.3-63.29 0-137.952-8.09-195-34.3z"/><path d="m136.004 361.924c8.284 0 15-6.716 15-15v-60c0-8.284-6.716-15-15-15s-15 6.716-15 15v60c0 8.284 6.716 15 15 15z"/><path d="m196.004 361.924c8.284 0 15-6.716 15-15v-60c0-8.284-6.716-15-15-15s-15 6.716-15 15v60c0 8.284 6.716 15 15 15z"/><path d="m256.004 361.924c8.284 0 15-6.716 15-15v-60c0-8.284-6.716-15-15-15s-15 6.716-15 15v60c0 8.284 6.716 15 15 15z"/><path d="m316.004 361.924c8.284 0 15-6.716 15-15v-60c0-8.284-6.716-15-15-15s-15 6.716-15 15v60c0 8.284 6.716 15 15 15z"/><path d="m376.004 361.924c8.284 0 15-6.716 15-15v-60c0-8.284-6.716-15-15-15s-15 6.716-15 15v60c0 8.284 6.716 15 15 15z"/></g></svg>