<svg id="Capa_1" enable-background="new 0 0 513.086 513.086" height="512" viewBox="0 0 513.086 513.086" width="512" xmlns="http://www.w3.org/2000/svg"><path d="m19.776 512.278 127.428-42.576c2.043-.687 4.234-2.001 5.854-3.621l336.998-336.998c70.192-70.192-35.964-176.17-106.066-106.065l-336.999 336.999c-1.634 1.629-2.952 3.855-3.62 5.853l-42.575 127.428c-3.911 11.706 7.258 22.894 18.98 18.98zm353.607-436.227 63.64 63.64-21.213 21.213-63.641-63.64zm21.214 106.066-252.146 252.145-21.214-21.213 252.145-252.146zm74.246-74.246-10.607 10.607-63.64-63.64 10.606-10.606c42.184-42.182 105.637 21.642 63.641 63.639zm-137.887 10.607 21.214 21.213-252.146 252.145-21.214-21.213zm-266.817 279.9 50.557 50.556-75.923 25.367z"/></svg>