<svg id="Capa_1" enable-background="new 0 0 512 512" height="512" viewBox="0 0 512 512" width="512" xmlns="http://www.w3.org/2000/svg"><path d="m392.084 241.001c-.126-11.192-.084-134.898-.084-135.001 0-41.355-33.645-75-75-75h-60c-8.284 0-15 6.716-15 15s6.716 15 15 15h60c24.813 0 45 20.187 45 45v80.209l-176.4 77.554c-8.783 3.904-17.26 8.35-25.408 13.274-3.812-9.196-7.256-22.474-8.842-36.037h43.65c8.284 0 15-6.716 15-15v-30c0-6.457-4.132-12.188-10.257-14.23l-90-30c-1.529-.51-3.131-.77-4.743-.77-24.813 0-45 20.187-45 45s20.187 45 45 45h16.192c1.793 18.522 6.696 38.75 14.064 53.451-14.499 11.626-27.532 24.963-38.82 39.687-6.797-2.032-13.988-3.138-21.436-3.138-41.355 0-75 33.645-75 75s33.645 75 75 75 75-33.645 75-75c0-23.011-10.426-43.625-26.792-57.394 19.765-24.549 45.234-44.388 74.52-57.404l164.272-72.222c.011 4.785-.044 13.55.129 25.783-51.764 13.311-90.129 60.378-90.129 116.237 0 66.168 53.832 120 120 120s120-53.832 120-120c0-66.14-53.786-119.953-119.916-119.999zm-302.084-45.001c0-7.584 5.657-13.872 12.975-14.864l77.025 25.676v4.188h-75c-8.271 0-15-6.729-15-15zm30 210c0 24.813-20.187 45-45 45s-45-20.187-45-45 20.187-45 45-45c1.209 0 2.403.062 3.588.156-7.156 12.688-13.152 26.1-17.819 40.101-2.619 7.859 1.628 16.354 9.487 18.974 7.846 2.615 16.349-1.615 18.974-9.487 4.35-13.05 10.021-25.516 16.846-37.242 8.57 8.197 13.924 19.73 13.924 32.498zm272 45c-49.626 0-90-40.374-90-90 0-39.487 25.563-73.115 61.009-85.208 2.333 52.656 8.66 86.09 18.385 95.814 5.857 5.858 15.355 5.859 21.213 0 5.39-5.389 5.82-13.859 1.294-19.741-1.139-2.153-8.557-18.439-11.07-80.855 49.244.449 89.169 40.642 89.169 89.99 0 49.626-40.374 90-90 90z"/></svg>