<svg id="Capa_1" enable-background="new 0 0 512.003 512.003" height="512" viewBox="0 0 512.003 512.003" width="512" xmlns="http://www.w3.org/2000/svg"><path d="m438.62 316.042-21.826-120.041h20.208c24.813 0 45-20.187 45-45s-20.187-45-45-45h-36.572l-8.67-47.683c-1.297-7.132-7.509-12.317-14.758-12.317h-90c-8.284 0-15 6.716-15 15s6.716 15 15 15h77.481l33.764 185.705c-51.822 15.403-89.469 60.47-95.421 114.295h-93.706c-3.331-30.414-16.758-58.56-38.658-80.459-43.12-43.12-110.128-51.949-162.956-21.472-7.176 4.14-9.637 13.313-5.497 20.489 4.14 7.175 13.312 9.638 20.489 5.497 41.09-23.707 93.211-16.84 126.75 16.699 16.224 16.225 26.469 36.866 29.639 59.247h-30.395c-6.968-34.192-37.272-60-73.491-60-41.355 0-75 33.645-75 75s33.645 75 75 75c36.219 0 66.522-25.808 73.491-60h168.509c8.284 0 15-6.716 15-15 0-45.771 29.37-85.515 71.653-99.556l5.447 29.959c-27.574 11.095-47.1 38.1-47.1 69.597 0 41.355 33.645 75 75 75s75-33.645 75-75c.002-40.813-32.772-74.093-73.381-74.96zm-363.617 119.959c-24.813 0-45-20.187-45-45s20.187-45 45-45c19.555 0 36.228 12.542 42.42 30h-42.42c-8.284 0-15 6.716-15 15s6.716 15 15 15h42.42c-6.193 17.459-22.866 30-42.42 30zm362-300c8.271 0 15 6.729 15 15s-6.729 15-15 15h-25.663l-5.455-30zm0 300c-24.813 0-45-20.187-45-45 0-16.684 9.134-31.265 22.656-39.036l7.585 41.719c1.482 8.15 9.286 13.555 17.441 12.075 8.151-1.482 13.557-9.291 12.075-17.441l-7.589-41.739c21.417 3.444 37.831 22.05 37.831 44.422.001 24.813-20.186 45-44.999 45z"/></svg>