<svg id="Capa_1" enable-background="new 0 0 512 512" height="512" viewBox="0 0 512 512" width="512" xmlns="http://www.w3.org/2000/svg"><path d="m256 0c-24.813 0-45 20.187-45 45v92c0 43.394-46.301 61.763-85.142 69.532-18.131 3.625-34.592 13.311-46.352 27.271-20.333 24.139-18.384 52.477-18.506 53.197 0 61.116 51.768 91.313 97.442 117.957 42.457 24.766 82.558 48.159 82.558 92.043 0 8.284 6.716 15 15 15s15-6.716 15-15c0-43.884 40.102-67.277 82.558-92.043 45.674-26.644 97.442-56.841 97.442-117.957-.223-1.321 2.401-28.377-18.506-53.197-11.76-13.96-28.221-23.646-46.352-27.271-38.841-7.769-85.142-26.138-85.142-69.532v-92c0-24.813-20.187-45-45-45zm-15 45c0-8.271 6.729-15 15-15s15 6.729 15 15v77h-30zm-67.442 334.043c-37.343-21.783-72.859-42.506-80.873-77.043h88.722c2.536 45.55 14.941 67.817 35.414 104.206-13.815-9.982-28.842-18.75-43.263-27.163zm82.442 38.176c-5.149-11.961-11.1-22.377-16.977-32.661-12.841-22.472-25.038-43.849-27.546-82.558h89.045c-2.508 38.709-14.706 60.086-27.546 82.558-5.876 10.284-11.827 20.7-16.976 32.661zm82.442-38.176c-14.421 8.412-29.448 17.18-43.263 27.163 16.344-29.05 32.619-54.016 35.414-104.206h88.722c-8.014 34.537-43.53 55.26-80.873 77.043zm41.817-143.094c19.657 3.931 34.456 18.026 39.159 36.051h-326.836c4.703-18.025 19.502-32.12 39.16-36.051 50.041-10.008 99.333-33.68 107.999-83.949h32.52c8.666 50.277 57.971 73.944 107.998 83.949z"/></svg>