<svg id="Capa_1" enable-background="new 0 0 512 512" height="512" viewBox="0 0 512 512" width="512" xmlns="http://www.w3.org/2000/svg"><g><path d="m467 90c24.813 0 45-20.187 45-45s-20.187-45-45-45-45 20.187-45 45c0 6.939 1.581 13.515 4.398 19.39l-16.939 16.938c-28.625-23.874-65.426-38.26-105.527-38.26-90.981 0-165 74.019-165 165 0 23.744 5.05 46.327 14.119 66.746-4.47 7.606-12.741 62.843-111.901 120.693-34.011 19.843-41.15 42.761-41.15 58.493 0 31.001 28.953 58 58 58 15.732 0 38.65-7.139 58.492-41.149 57.758-99.001 112.871-107.302 120.694-111.9 20.419 9.068 43.002 14.118 66.746 14.118 90.981 0 165-74.019 165-165 0-40.102-14.386-76.902-38.26-105.527l16.939-16.938c5.875 2.815 12.45 4.396 19.389 4.396zm0-60c8.271 0 15 6.729 15 15s-6.729 15-15 15-15-6.729-15-15 6.729-15 15-15zm-163.068 43.068c31.827 0 61.112 11.078 84.216 29.571l-21.287 21.287c-17.921-13.515-39.739-20.817-62.929-20.817-55.916 0-104.959 44.799-104.959 104.959 0 23.272 7.293 45.072 20.805 62.941l-21.275 21.275c-18.493-23.104-29.571-52.389-29.571-84.216 0-74.439 60.56-135 135-135zm-74.959 135c0-16.086 4.7-30.04 12.341-41.405l104.023 104.022c-11.365 7.642-25.319 12.342-41.405 12.342-36.05.001-74.959-28.658-74.959-74.959zm33.762-62.409c12.494-8.145 27.065-12.55 41.197-12.55 46.3 0 74.959 38.909 74.959 74.959 0 14.132-4.405 28.702-12.55 41.196zm-172.155 310.073c-6.991 11.984-18.319 26.268-32.58 26.268-12.226 0-28-13.578-28-28 0-14.261 14.284-25.589 26.268-32.58 46.528-27.145 93.514-65.494 116.052-113.954 9.168 12.11 20.054 23.008 32.214 32.214-48.451 22.535-86.802 69.513-113.954 116.052zm348.352-247.664c0 74.439-60.561 135-135 135-31.827 0-61.112-11.078-84.216-29.571l21.415-21.416c18.186 13.416 40.49 20.946 62.8 20.946 59.886 0 104.959-48.804 104.959-104.959 0-22.426-7.513-44.701-20.92-62.826l21.39-21.39c18.494 23.105 29.572 52.389 29.572 84.216z"/></g></svg>