<svg id="Capa_1" enable-background="new 0 0 512 512" height="512" viewBox="0 0 512 512" width="512" xmlns="http://www.w3.org/2000/svg"><path d="m497 60.959h-482c-8.284 0-15 6.716-15 15v119.995c-.002 3.848 1.551 7.773 4.396 10.614 1.131 1.131 107.111 107.529 138.006 173.701 44.323 94.922 184.414 97.302 227.637-10.758 30.646-76.612 135.28-160.998 136.331-161.839 3.404-2.723 5.63-7.056 5.63-11.713v-120c0-8.284-6.716-15-15-15zm-15 120h-75c-24.813 0-45-20.187-45-45s20.187-45 45-45h75zm-134.959 0h-182.082c9.438-12.544 15.041-28.129 15.041-45s-5.603-32.456-15.041-45h182.082c-9.438 12.544-15.041 28.129-15.041 45s5.603 32.456 15.041 45zm-317.041-90h75c24.813 0 45 20.187 45 45s-20.187 45-45 45h-75zm20.25 120h76.34c12.099 20.729 47.266 87.629 52.697 172.907-3.722-5.037-6.99-10.484-9.7-16.289-23.677-50.706-84.772-119.729-119.337-156.618zm159.127 199.26c3.08-10.405.63-105.497-48.439-199.26h190.124c-18.407 35.173-49.062 106.963-49.062 195 0 .574.039 1.138.102 1.694-28.807 18.198-66.513 16.842-92.725 2.566zm132.809-51.849c-2.483 6.208-5.471 12.055-8.873 17.508 7.021-81.449 40.379-144.84 52.098-164.918h71.458c-35.562 32.692-91.968 90.621-114.683 147.41z"/></svg>