<svg id="Capa_1" enable-background="new 0 0 512 512" height="512" viewBox="0 0 512 512" width="512" xmlns="http://www.w3.org/2000/svg"><g><path d="m346 332h15v15c0 8.284 6.716 15 15 15s15-6.716 15-15v-15h15c8.284 0 15-6.716 15-15s-6.716-15-15-15h-15v-15c0-8.284-6.716-15-15-15s-15 6.716-15 15v15h-15c-8.284 0-15 6.716-15 15s6.716 15 15 15z"/><path d="m241 332h30c8.284 0 15-6.716 15-15s-6.716-15-15-15h-30c-8.284 0-15 6.716-15 15s6.716 15 15 15z"/><path d="m136 362c24.813 0 45-20.187 45-45s-20.187-45-45-45-45 20.187-45 45 20.187 45 45 45zm0-60c8.271 0 15 6.729 15 15s-6.729 15-15 15-15-6.729-15-15 6.729-15 15-15z"/><path d="m31 437c0 41.355 33.645 75 75 75 27.687 0 53.092-15.203 66.346-39.761l42.641-80.239h82.026l42.687 80.325c13.208 24.472 38.613 39.675 66.3 39.675 41.355 0 75-33.645 75-75v-120c0-57.897-47.103-105-105-105-27.451 0-53.76 10.855-73.216 30h-31.784v-75c0-8.271 6.729-15 15-15 24.813 0 45-20.187 45-45v-92c0-8.284-6.716-15-15-15s-15 6.716-15 15v92c0 8.271-6.729 15-15 15-24.813 0-45 20.187-45 45v75h-31.784c-19.456-19.145-45.765-30-73.216-30-57.897 0-105 47.103-105 105zm30-120c0-41.355 33.645-75 75-75 21.212 0 41.471 9.101 55.582 24.968 2.847 3.201 6.926 5.032 11.209 5.032h106.418c4.283 0 8.362-1.831 11.209-5.032 14.111-15.867 34.37-24.968 55.582-24.968 41.355 0 75 33.645 75 75v120c0 24.813-20.187 45-45 45-16.647 0-31.936-9.167-39.855-23.839l-46.872-88.2c-2.603-4.899-7.698-7.961-13.246-7.961h-100.055c-5.548 0-10.643 3.062-13.246 7.961l-46.826 88.115c-7.964 14.757-23.253 23.924-39.9 23.924-24.813 0-45-20.187-45-45z"/></g></svg>