<svg id="Capa_1" enable-background="new 0 0 512.01 512.01" height="512" viewBox="0 0 512.01 512.01" width="512" xmlns="http://www.w3.org/2000/svg"><g><path d="m133.053 451.401c2.633-7.724 5.947-17.464 9.357-27.521 10.333-30.47 38.88-50.943 71.037-50.943h73.563c41.355 0 75 33.645 75 75v6.674c-69.013 11.794-158.916 11.387-228.957-3.21zm-87.285-380.508c14.15-14.073 32.921-21.82 52.885-21.82h.034c20.046.009 38.885 7.827 53.047 22.014l28.277 28.327v50.475s-49.12-57.284-49.391-57.556c-8.5-8.5-19.8-13.18-31.82-13.18s-23.321 4.681-31.82 13.18l-10.449 10.449-20.745-21.308zm63.338 91.012c-2.312-4.073-6.392-6.832-11.033-7.46-4.639-.628-9.308.947-12.619 4.258l-29.843 29.843c-5.847 5.847-15.36 5.848-21.208 0-5.86-5.861-5.863-15.347 0-21.209l53.79-53.79c2.833-2.833 6.6-4.393 10.607-4.393 3.847 0 7.472 1.438 10.262 4.06l85.949 100.273v84.452c0 8.284 6.716 15 15 15h31v30h-27.563c-45.02 0-84.984 28.657-99.448 71.309-3.878 11.436-7.501 22.08-10.193 29.972-9.583-2.742-19.189-5.905-28.404-9.498-.052-.02-.103-.04-.154-.06 1.955-5.765 1.753-5.624 11.927-34.917 27.922-80.396 59.57-171.518 21.93-237.84zm146.904 331.032c63.202 0 134.325-7.523 193.539-31.06 39.659-15.749 56.675-31.949 57.979-33.246 5.906-5.81 5.985-15.307.175-21.212-5.781-5.877-15.21-5.979-21.138-.249-.015.014-.063.058-.157.144-1.418 1.28-11.945 10.416-34.399 20.858-.134-138.709.299-131.019-.375-139.073 13.737 6.586 30.375 18.715 30.375 38.838 0 8.284 6.716 15 15 15s15-6.716 15-15v-105c0-33.084-26.916-60-60-60-26.659 0-49.302 17.482-57.095 41.58-14.371-7.399-30.658-11.58-47.905-11.58h-130.1s-4.699-5.482-6.899-8.049c0-21.317 0-91.68 0-91.68 0-3.974-1.577-7.785-4.384-10.597l-32.661-32.719c-19.826-19.862-46.201-30.807-74.265-30.819-.017 0-.03 0-.047 0-28.045 0-54.414 10.922-74.246 30.755-.103.103-.204.207-.304.313l-20.004 21.202c-5.515 5.846-5.442 14.999.164 20.757l31.053 31.897-22.126 22.126c-17.584 17.583-17.587 46.048 0 63.635 17.544 17.545 46.09 17.545 63.634 0l14.236-14.235c16.553 53.934-9.204 128.097-32.225 194.377-8.994 25.895-10.41 30.392-11.008 32.152-15.438-8.394-22.286-14.799-22.388-14.889-5.912-5.724-15.342-5.622-21.123.256-5.809 5.906-5.73 15.403.176 21.212 2.883 2.863 7.133 6.061 10.476 8.383 62.192 43.936 164.79 55.923 241.042 55.923zm61-195v-75h30c41.355 0 75 33.645 75 75v142.034c-8.724 2.891-18.705 5.788-30 8.505v-.54c0-57.897-47.103-105-105-105h-16v-30h31c8.284.001 15-6.714 15-14.999zm-92-75h62v60h-62zm217.251 30.847c-5.068-10.889-11.947-20.768-20.251-29.25v-1.596c0-16.542 13.458-30 30-30s30 13.458 30 30v49.421c-2.273-1.665-4.672-3.266-7.193-4.803-13.74-8.374-27.468-12.446-32.556-13.772z"/></g></svg>