<svg id="Capa_1" enable-background="new 0 0 512.008 512.008" height="512" viewBox="0 0 512.008 512.008" width="512" xmlns="http://www.w3.org/2000/svg"><path d="m113.397 327.957c-.001.001-.003.002-.004.003-.002.001-.003.003-.005.005-45.785 38.557-50.44 107.814-8.944 152.161 38.675 41.333 104.601 41.853 148.119 5.194 7.733-6.513 123.39-103.913 131.094-110.401 23.746-19.997 37.364-49.271 37.364-80.314v-204.605c8.284 0 15-6.716 15-15v-60c0-8.284-6.716-15-15-15h-210c-8.284 0-15 6.716-15 15v60c0 8.284 6.716 15 15 15v155.753zm12.953 131.67c-26.774-28.611-26.029-70.454-4.149-97.921l94.071 111.71c-30.387 14.891-67.55 10.121-89.922-13.789zm237.983-107.656-31.333 26.388c-9.471-26.005-9.336-54.653.772-80.936 10.523-27.358 31.251-49.651 57.25-62.381v59.562c-.001 22.174-9.728 43.084-26.689 57.367zm-138.312-321.971h180v30h-180zm9.662 234.206c3.384-2.85 5.338-7.049 5.338-11.474v-162.732h150v112.442c-38.857 14.465-70.268 45.258-85.25 84.212-14.05 36.532-12.808 76.695 3.12 112.007l-68.073 57.328-96.627-114.744z"/></svg>