<svg id="Capa_1" enable-background="new 0 0 512.027 512.027" height="512" viewBox="0 0 512.027 512.027" width="512" xmlns="http://www.w3.org/2000/svg"><g><path d="m307.189 35.174c-30.695 30.696-238.22 238.221-272.056 272.057-46.788 46.788-46.788 122.917 0 169.705 46.786 46.787 122.917 46.789 169.705 0 31.262-31.262 238.983-238.982 272.056-272.056 46.788-46.788 46.788-122.917 0-169.705-46.897-46.898-122.804-46.902-169.705-.001zm84.852 212.132-21.214-21.213 10.6-10.6c.002-.002.005-.004.008-.007s.004-.005.007-.008l10.6-10.599 21.214 21.213zm-53.033-10.607 31.82 31.82-102.351 102.351-31.819-31.82c-5.854-5.855-15.357-5.857-21.213 0l-10.607 10.607-42.427-42.427 10.607-10.607c5.854-5.853 5.858-15.356 0-21.213l-31.82-31.82 102.351-102.35 31.819 31.82c2.813 2.813 6.628 4.394 10.606 4.394s7.794-1.581 10.606-4.394l10.607-10.607 42.427 42.427-10.607 10.607c-2.813 2.813-4.394 6.628-4.394 10.606.002 3.978 1.582 7.793 4.395 10.606zm-112.957 176.597-21.214-21.213 21.214-21.213 21.213 21.213zm-106.065-148.492 21.214 21.213-10.6 10.6c-.002.002-.005.004-.008.007s-.004.005-.007.008l-10.6 10.599-21.214-21.213zm165.989-123.564-21.213-21.213 21.213-21.213 21.214 21.213zm-102.35 314.483c-35.173 35.172-92.102 35.176-127.279 0-35.171-35.171-35.177-92.102 0-127.279l21.213-21.213 31.82 31.82c5.857 5.858 15.355 5.859 21.213 0l10.607-10.606 42.427 42.427c-7.402 8.504-15 11.74-15 21.213 0 3.979 1.58 7.793 4.394 10.606l31.82 31.82zm272.056-272.056-21.213 21.213-31.82-31.82c-5.857-5.858-15.355-5.858-21.213 0l-10.607 10.606-42.427-42.427 10.607-10.606c2.813-2.813 4.394-6.628 4.394-10.606s-1.58-7.793-4.394-10.606l-31.82-31.82 21.214-21.213c35.173-35.172 92.102-35.176 127.279 0 35.172 35.171 35.177 92.102 0 127.279z"/></g></svg>