<svg id="Capa_1" enable-background="new 0 0 512 512" height="512" viewBox="0 0 512 512" width="512" xmlns="http://www.w3.org/2000/svg"><path d="m406 92h-15v-77c0-8.284-6.716-15-15-15h-240c-8.284 0-15 6.716-15 15v77h-15c-19.832 0-19.86 30 0 30h15v45c0 24.447 11.762 46.195 29.919 59.896l-29.828 268.448c-.985 8.875 5.968 16.656 14.909 16.656h60.37c7.643 0 14.064-5.747 14.908-13.344l11.85-106.656h65.743l11.851 106.656c.844 7.597 7.265 13.344 14.908 13.344h60.37c8.93 0 15.896-7.769 14.908-16.657l-29.828-268.448c18.158-13.7 29.92-35.448 29.92-59.895v-45h15c19.832 0 19.86-30 0-30zm-90 120h-45v-90h90v45c0 24.813-20.187 45-45 45zm-120 0c-24.813 0-45-20.187-45-45v-45h90v90zm165-182v62h-210v-62zm-208.241 452 26.869-241.822c12.021 2.688 19.642 1.553 29.983 1.822l-26.667 240zm73.703-120 13.333-120h32.41l13.333 120zm132.779 120h-30.185l-26.667-240c10.38-.27 17.982.862 29.983-1.822z"/></svg>