<svg id="Capa_1" enable-background="new 0 0 512 512" height="512" viewBox="0 0 512 512" width="512" xmlns="http://www.w3.org/2000/svg"><g><path d="m497 196h-45v-45c0-8.284-6.716-15-15-15s-15 6.716-15 15v45h-92.509c-6.968-34.192-37.272-60-73.491-60s-66.522 25.808-73.491 60h-62.509v-45c0-8.284-6.716-15-15-15s-15 6.716-15 15v45h-75c-8.284 0-15 6.716-15 15s6.716 15 15 15h166v71.459l-28.417 56.833c-4.976 9.954 2.27 21.708 13.417 21.708h180c11.129 0 18.402-11.738 13.417-21.708l-28.417-56.833v-71.459h166c8.284 0 15-6.716 15-15s-6.716-15-15-15zm-241-30c24.813 0 45 20.187 45 45v75h-90v-75c0-24.813 20.187-45 45-45zm-65.729 180 15-30h101.459l15 30z"/><circle cx="256" cy="211" r="15"/></g></svg>