<svg id="Capa_1" enable-background="new 0 0 512 512" height="512" viewBox="0 0 512 512" width="512" xmlns="http://www.w3.org/2000/svg"><g><path d="m151 0c-56.289 0-90 62.125-90 120 0 50.742 26.173 107.731 75 118.377v34.203c-17.459 6.192-30 22.865-30 42.42v152c0 24.813 20.187 45 45 45s45-20.187 45-45v-152c0-19.555-12.541-36.228-30-42.42v-34.203c48.715-10.622 75-67.458 75-118.377 0-58.279-33.984-120-90-120zm0 300c8.271 0 15 6.729 15 15v15h-30v-15c0-8.271 6.729-15 15-15zm0 182c-8.271 0-15-6.729-15-15v-107h30v107c0 8.271-6.729 15-15 15zm0-272c-38.735 0-60-50.927-60-90 0-38.874 21.157-90 60-90 38.735 0 60 50.927 60 90 0 38.874-21.157 90-60 90z"/><path d="m421 15v105h-45v-105c0-19.832-30-19.86-30 0v105h-45v-105c0-19.832-30-19.86-30 0v135c0 44.516 32.489 81.581 75 88.743v33.837c-17.459 6.192-30 22.865-30 42.42v152c0 24.813 20.187 45 45 45s45-20.187 45-45v-152c0-19.555-12.541-36.228-30-42.42v-33.837c42.511-7.163 75-44.228 75-88.743v-135c0-19.832-30-19.86-30 0zm-60 285c8.271 0 15 6.729 15 15v15h-30v-15c0-8.271 6.729-15 15-15zm0 182c-8.271 0-15-6.729-15-15v-107h30v107c0 8.271-6.729 15-15 15zm0-272c-33.084 0-60-26.916-60-60h120c0 33.084-26.916 60-60 60z"/></g></svg>