<svg id="Capa_1" enable-background="new 0 0 512 512" height="512" viewBox="0 0 512 512" width="512" xmlns="http://www.w3.org/2000/svg"><g><path d="m407 0c-28.046 0-54.414 10.922-74.246 30.754 0 0-302.581 302.622-302.853 302.944-18.488 18.936-29.901 44.809-29.901 73.302 0 57.897 47.103 105 105 105 28.492 0 54.365-11.413 73.302-29.9.322-.272.641-.55.944-.854l302-302c19.832-19.831 30.754-46.199 30.754-74.246 0-57.897-47.103-105-105-105zm-15 105c0-8.271 6.729-15 15-15s15 6.729 15 15-6.729 15-15 15-15-6.729-15-15zm-111.508 20.442c18.372 13.742 40.542 20.919 62.966 20.919 8.458 0 16.95-1.029 25.288-3.102-7.567 30.439-1.103 62.941 17.82 88.24l-176.58 176.58c.004-.36.014-.719.014-1.08 0-57.897-47.103-105-105-105-.361 0-.72.01-1.08.014zm-250.492 281.558c0-41.355 33.645-75 75-75s75 33.645 75 75-33.645 75-75 75-75-33.645-75-75zm430.033-248.967-51.953 51.953c-11.832-17.899-15.447-40.117-9.872-60.854 2.845.565 5.783.868 8.792.868 24.813 0 45-20.187 45-45s-20.187-45-45-45-45 20.187-45 45c0 3.009.302 5.947.868 8.792-20.738 5.576-42.956 1.959-60.855-9.872l51.953-51.953c14.167-14.166 33.001-21.967 53.034-21.967 41.355 0 75 33.645 75 75 0 20.034-7.802 38.868-21.967 53.033z"/></g></svg>