<svg id="Capa_1" enable-background="new 0 0 510 510" height="512" viewBox="0 0 510 510" width="512" xmlns="http://www.w3.org/2000/svg"><g><path d="m491.983 368.985-71.983-53.989c-.004-41.352-33.647-74.996-75-74.996-21.754 0-41.366 9.318-55.078 24.163l-128.841-46.942c-13.149-4.792-26.972-7.221-41.081-7.221v-98.072c8.833 5.123 19.075 8.072 30 8.072 33.084 0 60-26.916 60-60s-26.916-60-60-60c-17.908 0-33.997 7.896-45 20.377-11.003-12.481-27.092-20.377-45-20.377-33.084 0-60 26.916-60 60s26.916 60 60 60c10.925 0 21.167-2.949 30-8.072v101.869c-51.699 13.355-90 60.39-90 116.203v45c0 36.667 26.457 67.253 61.28 73.72 6.467 34.822 37.052 61.28 73.72 61.28 36.22 0 66.522-25.808 73.491-60h91.509c0 33.084 26.916 60 60 60s60-26.916 60-60h45c24.813 0 45-20.187 45-45 0-14.089-6.735-27.553-18.017-36.015zm-341.983-338.985c16.542 0 30 13.458 30 30s-13.458 30-30 30-30-13.458-30-30 13.458-30 30-30zm-90 60c-16.542 0-30-13.458-30-30s13.458-30 30-30 30 13.458 30 30-13.458 30-30 30zm75 390c-24.813 0-45-20.187-45-45s20.187-45 45-45c24.809 0 44.993 20.18 45 44.987v.013s0 .009 0 .013c-.007 24.807-20.191 44.987-45 44.987zm73.491-60c-6.968-34.192-37.271-60-73.491-60-35.53 0-65.347 24.843-73.048 58.064-18.469-5.606-31.952-22.788-31.952-43.064v-45c0-49.626 40.374-90 90-90 10.596 0 20.962 1.819 30.812 5.408l123.368 44.948c-2.696 7.724-4.18 16.012-4.18 24.644 0 23.729 11.293 45.945 30 60 0 16.871 5.603 32.456 15.041 45zm151.509 60c-16.542 0-30-13.458-30-30h60c0 16.542-13.458 30-30 30zm105-60h-90c-24.813 0-45-20.187-45-45 0-1.953.125-3.912.372-5.824.78-6.05-2.181-11.971-7.49-14.975-14.114-7.986-22.882-23.007-22.882-39.201 0-24.813 20.187-45 45-45s45 20.187 45 45c0 1.953-.125 3.912-.372 5.824-.78 6.05 2.181 11.971 7.49 14.975 1.672.946 3.303 2.013 4.848 3.171l72.017 54.014c3.824 2.869 6.017 7.248 6.017 12.016 0 8.271-6.729 15-15 15z"/><circle cx="345" cy="315" r="15"/><circle cx="135" cy="435" r="15"/></g></svg>