<?xml version="1.0" encoding="UTF-8" standalone="no"?>
<!DOCTYPE svg PUBLIC "-//W3C//DTD SVG 1.1//EN" "http://www.w3.org/Graphics/SVG/1.1/DTD/svg11.dtd">
<svg width="100%" height="100%" viewBox="0 0 24 24" version="1.1" xmlns="http://www.w3.org/2000/svg" xmlns:xlink="http://www.w3.org/1999/xlink" xml:space="preserve" xmlns:serif="http://www.serif.com/" style="fill-rule:evenodd;clip-rule:evenodd;stroke-linejoin:round;stroke-miterlimit:2;">
    <g>
        <path d="M6.713,14.773c0.587,0.575 1.297,0.857 2.144,0.857c0.846,0 1.556,-0.282 2.143,-0.857c0.587,-0.576 0.88,-1.298 0.88,-2.155c0,-0.857 -0.293,-1.568 -0.88,-2.144c-0.587,-0.575 -1.297,-0.868 -2.143,-0.868c-0.847,0 -1.557,0.293 -2.144,0.868c-0.587,0.576 -0.88,1.287 -0.88,2.144c0,0.857 0.293,1.579 0.88,2.155Zm0.575,-3.746c0.418,-0.429 0.937,-0.643 1.569,-0.643c0.631,0 1.15,0.214 1.568,0.643c0.417,0.418 0.62,0.948 0.62,1.591c0,0.643 -0.203,1.173 -0.62,1.602c-0.418,0.417 -0.937,0.632 -1.568,0.632c-0.632,0 -1.151,-0.215 -1.569,-0.632c-0.417,-0.429 -0.62,-0.959 -0.62,-1.602c0,-0.643 0.203,-1.173 0.62,-1.591Z" style="fill-rule:nonzero;"/>
        <path d="M12.67,12.686c0,0.88 0.259,1.59 0.79,2.121c0.53,0.53 1.229,0.801 2.075,0.801c0.937,0 1.704,-0.339 2.302,-1.004l-0.553,-0.542c-0.508,0.542 -0.97,0.79 -1.749,0.79c-1.184,0 -1.985,-0.801 -2.03,-2.054l4.614,0c0.011,-0.112 0.011,-0.236 0.011,-0.361c0,-0.801 -0.248,-1.466 -0.733,-2.008c-0.485,-0.553 -1.106,-0.823 -1.884,-0.823c-0.824,0 -1.512,0.282 -2.042,0.835c-0.53,0.552 -0.801,1.286 -0.801,2.199l0,0.046Zm0.891,-0.621c0.034,-0.462 0.237,-0.857 0.609,-1.184c0.373,-0.328 0.824,-0.497 1.343,-0.497c0.474,0 0.88,0.169 1.218,0.497c0.339,0.327 0.508,0.722 0.508,1.184l-3.678,0Z" style="fill-rule:nonzero;"/>
    </g>
</svg>
