<?xml version="1.0" encoding="UTF-8" standalone="no"?>
<!DOCTYPE svg PUBLIC "-//W3C//DTD SVG 1.1//EN" "http://www.w3.org/Graphics/SVG/1.1/DTD/svg11.dtd">
<svg width="100%" height="100%" viewBox="0 0 24 24" version="1.1" xmlns="http://www.w3.org/2000/svg" xmlns:xlink="http://www.w3.org/1999/xlink" xml:space="preserve" xmlns:serif="http://www.serif.com/" style="fill-rule:evenodd;clip-rule:evenodd;stroke-linejoin:round;stroke-miterlimit:2;">
    <path d="M11.632,9.606c-0.801,0 -1.489,0.293 -2.042,0.868c-0.553,0.576 -0.835,1.287 -0.835,2.144c0,0.857 0.282,1.579 0.835,2.155c0.553,0.575 1.241,0.857 2.042,0.857c0.948,0 1.636,-0.338 2.065,-1.004c0.033,0.372 0.169,0.643 0.383,0.812c0.147,0.102 0.35,0.158 0.598,0.158c0.214,0 0.395,-0.033 0.53,-0.09l0,-0.632c-0.101,0.012 -0.203,0.023 -0.293,0.023c-0.316,0 -0.429,-0.214 -0.429,-0.711l0,-4.411l-0.835,0l0,0.846c-0.327,-0.575 -0.992,-1.015 -2.019,-1.015Zm0,5.246c-0.587,0 -1.072,-0.215 -1.467,-0.632c-0.383,-0.429 -0.575,-0.959 -0.575,-1.602c0,-0.643 0.192,-1.173 0.575,-1.591c0.395,-0.429 0.88,-0.643 1.467,-0.643c0.609,0 1.117,0.214 1.512,0.643c0.406,0.418 0.609,0.948 0.609,1.591c0,0.643 -0.203,1.173 -0.609,1.602c-0.395,0.417 -0.903,0.632 -1.512,0.632Z" style="fill-rule:nonzero;"/>
</svg>
