<?xml version="1.0" encoding="UTF-8" standalone="no"?>
<!DOCTYPE svg PUBLIC "-//W3C//DTD SVG 1.1//EN" "http://www.w3.org/Graphics/SVG/1.1/DTD/svg11.dtd">
<svg width="100%" height="100%" viewBox="0 0 24 24" version="1.1" xmlns="http://www.w3.org/2000/svg" xmlns:xlink="http://www.w3.org/1999/xlink" xml:space="preserve" xmlns:serif="http://www.serif.com/" style="fill-rule:evenodd;clip-rule:evenodd;stroke-linejoin:round;stroke-miterlimit:2;">
    <g>
        <path d="M6.378,15.558l0,-8.364l-2.088,0l0,0.864l1.152,0l0,7.5l0.936,0Z" style="fill-rule:nonzero;"/>
        <path d="M13.05,15.558l0,-0.864l-4.056,0l2.988,-3.324c0.576,-0.66 0.864,-1.32 0.864,-1.98c0,-0.66 -0.24,-1.212 -0.708,-1.68c-0.468,-0.468 -1.044,-0.696 -1.704,-0.696c-0.66,0 -1.236,0.228 -1.704,0.696c-0.468,0.468 -0.708,1.02 -0.708,1.68l0.924,0c0,-0.408 0.144,-0.756 0.432,-1.044c0.288,-0.3 0.636,-0.444 1.044,-0.444c0.408,0 0.756,0.144 1.044,0.432c0.3,0.288 0.444,0.636 0.444,1.044c0,0.468 -0.18,0.912 -0.552,1.332l-3.756,4.236l0,0.612l5.448,0Z" style="fill-rule:nonzero;"/>
        <path d="M13.614,13.998c0.468,1.092 1.644,1.74 3.096,1.74c0.876,0 1.584,-0.264 2.148,-0.78c0.564,-0.516 0.852,-1.2 0.852,-2.028c0,-0.768 -0.264,-1.404 -0.792,-1.908c-0.516,-0.504 -1.164,-0.756 -1.932,-0.756c-0.108,0 -0.192,0.012 -0.24,0.024l2.664,-2.472l0,-0.624l-5.028,0l0,0.864l3.612,0l-2.7,2.532l0.336,0.6c0.3,-0.096 0.612,-0.144 0.96,-0.144c1.38,0 2.232,0.768 2.232,1.884c0,0.564 -0.192,1.032 -0.588,1.392c-0.396,0.348 -0.9,0.528 -1.524,0.528c-1.116,0 -1.968,-0.456 -2.292,-1.224l-0.804,0.372Z" style="fill-rule:nonzero;"/>
    </g>
</svg>
