<?xml version="1.0" encoding="UTF-8" standalone="no"?>
<!DOCTYPE svg PUBLIC "-//W3C//DTD SVG 1.1//EN" "http://www.w3.org/Graphics/SVG/1.1/DTD/svg11.dtd">
<svg width="100%" height="100%" viewBox="0 0 24 24" version="1.1" xmlns="http://www.w3.org/2000/svg" xmlns:xlink="http://www.w3.org/1999/xlink" xml:space="preserve" xmlns:serif="http://www.serif.com/" style="fill-rule:evenodd;clip-rule:evenodd;stroke-linejoin:round;stroke-miterlimit:2;">
    <g>
        <path d="M5.393,15.563l0,-3.396c0,-0.948 0.643,-1.602 1.546,-1.602c0.868,0 1.41,0.598 1.41,1.545l0,2.223c0,1.139 0.643,1.263 1.083,1.263c0.147,0 0.259,-0.022 0.361,-0.056l0,-0.688c-0.09,0.011 -0.158,0.022 -0.214,0.022c-0.316,0 -0.395,-0.146 -0.395,-0.598l0,-2.346c0,-1.298 -0.79,-2.144 -2.042,-2.144c-0.824,0 -1.444,0.418 -1.749,1.049l0,-3.136l-0.835,0l0,7.864l0.835,0Z" style="fill-rule:nonzero;"/>
        <path d="M10.425,12.787c0,0.88 0.259,1.591 0.79,2.121c0.53,0.53 1.229,0.801 2.075,0.801c0.937,0 1.704,-0.338 2.302,-1.004l-0.553,-0.541c-0.508,0.541 -0.97,0.789 -1.749,0.789c-1.184,0 -1.985,-0.801 -2.03,-2.053l4.614,0c0.011,-0.113 0.011,-0.237 0.011,-0.361c0,-0.801 -0.248,-1.467 -0.733,-2.008c-0.485,-0.553 -1.106,-0.824 -1.884,-0.824c-0.824,0 -1.512,0.282 -2.042,0.835c-0.53,0.553 -0.801,1.286 -0.801,2.2l0,0.045Zm0.891,-0.62c0.034,-0.463 0.237,-0.858 0.609,-1.185c0.373,-0.327 0.824,-0.496 1.343,-0.496c0.474,0 0.88,0.169 1.218,0.496c0.339,0.327 0.508,0.722 0.508,1.185l-3.678,0Z" style="fill-rule:nonzero;"/>
        <path d="M17.25,13.972c0,1.173 0.508,1.76 1.523,1.76c0.294,0 0.508,-0.034 0.632,-0.091l0,-0.722c-0.146,0.023 -0.316,0.034 -0.53,0.034c-0.553,0 -0.79,-0.259 -0.79,-0.981l0,-3.317l1.32,0l0,-0.779l-1.32,0l0,-2.177l-0.835,0l0,2.177l-0.665,0l0,0.779l0.665,0l0,3.317Z" style="fill-rule:nonzero;"/>
    </g>
</svg>
